<mxfile host="Electron" agent="Mozilla/5.0 (Windows NT 10.0; Win64; x64) AppleWebKit/537.36 (KHTML, like Gecko) draw.io/24.7.17 Chrome/128.0.6613.36 Electron/32.0.1 Safari/537.36" version="24.7.17">
  <diagram id="1Hupn4D8TSvckjqBUHME" name="Page-1">
    <mxGraphModel dx="7235" dy="2453" grid="0" gridSize="10" guides="1" tooltips="0" connect="0" arrows="1" fold="1" page="0" pageScale="1" pageWidth="1100" pageHeight="850" background="#878787" math="0" shadow="0">
      <root>
        <mxCell id="0" />
        <mxCell id="1" parent="0" />
        <mxCell id="NgWnnuIfLwq-9tEsxxi--40" value="" style="rounded=0;whiteSpace=wrap;html=1;fillColor=none;strokeWidth=9;sketch=1;curveFitting=1;jiggle=2;" parent="1" vertex="1">
          <mxGeometry x="-1590" y="2585" width="1500" height="1660" as="geometry" />
        </mxCell>
        <mxCell id="NgWnnuIfLwq-9tEsxxi--7" value="" style="rounded=0;whiteSpace=wrap;html=1;fillColor=none;strokeWidth=9;" parent="1" vertex="1">
          <mxGeometry x="4473" y="247" width="1500" height="1660" as="geometry" />
        </mxCell>
        <mxCell id="8ZbqEjZub7kzS0Q19izj-2" value="" style="rounded=0;whiteSpace=wrap;html=1;fillColor=none;strokeWidth=9;sketch=1;curveFitting=1;jiggle=2;" parent="1" vertex="1">
          <mxGeometry x="375" y="285" width="1500" height="1660" as="geometry" />
        </mxCell>
        <mxCell id="Dxjzg4d-xkrHuTBMKeB6-27" style="edgeStyle=orthogonalEdgeStyle;rounded=0;orthogonalLoop=1;jettySize=auto;html=1;fontSize=50;strokeWidth=10;exitX=0.5;exitY=1;exitDx=0;exitDy=0;sketch=1;curveFitting=1;jiggle=2;" parent="1" source="Dxjzg4d-xkrHuTBMKeB6-20" target="Dxjzg4d-xkrHuTBMKeB6-22" edge="1">
          <mxGeometry relative="1" as="geometry">
            <Array as="points">
              <mxPoint x="-926" y="-505" />
              <mxPoint x="-926" y="-370" />
              <mxPoint x="-1745" y="-370" />
            </Array>
          </mxGeometry>
        </mxCell>
        <mxCell id="Dxjzg4d-xkrHuTBMKeB6-50" style="edgeStyle=orthogonalEdgeStyle;rounded=0;orthogonalLoop=1;jettySize=auto;html=1;fontSize=50;strokeWidth=10;exitX=0.5;exitY=1;exitDx=0;exitDy=0;sketch=1;curveFitting=1;jiggle=2;" parent="1" source="Dxjzg4d-xkrHuTBMKeB6-20" target="Dxjzg4d-xkrHuTBMKeB6-23" edge="1">
          <mxGeometry relative="1" as="geometry">
            <Array as="points">
              <mxPoint x="-924" y="-505" />
              <mxPoint x="-924" y="-370" />
              <mxPoint x="-930" y="-370" />
            </Array>
          </mxGeometry>
        </mxCell>
        <mxCell id="Dxjzg4d-xkrHuTBMKeB6-52" style="edgeStyle=orthogonalEdgeStyle;rounded=0;orthogonalLoop=1;jettySize=auto;html=1;fontSize=50;strokeWidth=9;exitX=0.5;exitY=1;exitDx=0;exitDy=0;sketch=1;curveFitting=1;jiggle=2;" parent="1" source="Dxjzg4d-xkrHuTBMKeB6-20" target="Dxjzg4d-xkrHuTBMKeB6-26" edge="1">
          <mxGeometry relative="1" as="geometry">
            <Array as="points">
              <mxPoint x="-924" y="-505" />
              <mxPoint x="-924" y="-370" />
              <mxPoint x="1165" y="-370" />
            </Array>
          </mxGeometry>
        </mxCell>
        <mxCell id="Dxjzg4d-xkrHuTBMKeB6-53" style="edgeStyle=orthogonalEdgeStyle;rounded=0;orthogonalLoop=1;jettySize=auto;html=1;strokeWidth=9;exitX=0.5;exitY=1;exitDx=0;exitDy=0;" parent="1" source="Dxjzg4d-xkrHuTBMKeB6-20" target="Dxjzg4d-xkrHuTBMKeB6-30" edge="1">
          <mxGeometry relative="1" as="geometry">
            <Array as="points">
              <mxPoint x="-922" y="-370" />
              <mxPoint x="3370" y="-370" />
            </Array>
          </mxGeometry>
        </mxCell>
        <mxCell id="NgWnnuIfLwq-9tEsxxi--32" style="edgeStyle=orthogonalEdgeStyle;rounded=0;hachureGap=4;orthogonalLoop=1;jettySize=auto;html=1;fontFamily=Architects Daughter;fontSource=https%3A%2F%2Ffonts.googleapis.com%2Fcss%3Ffamily%3DArchitects%2BDaughter;fontSize=16;startSize=14;endArrow=open;endSize=14;sourcePerimeterSpacing=8;targetPerimeterSpacing=8;strokeWidth=10;shadow=1;flowAnimation=0;" parent="1" source="Dxjzg4d-xkrHuTBMKeB6-20" target="NgWnnuIfLwq-9tEsxxi--1" edge="1">
          <mxGeometry relative="1" as="geometry">
            <Array as="points">
              <mxPoint x="-922" y="-370" />
              <mxPoint x="5234" y="-370" />
            </Array>
          </mxGeometry>
        </mxCell>
        <mxCell id="NgWnnuIfLwq-9tEsxxi--41" style="edgeStyle=orthogonalEdgeStyle;rounded=0;sketch=1;hachureGap=4;jiggle=2;curveFitting=1;orthogonalLoop=1;jettySize=auto;html=1;fontFamily=Architects Daughter;fontSource=https%3A%2F%2Ffonts.googleapis.com%2Fcss%3Ffamily%3DArchitects%2BDaughter;fontSize=16;startSize=14;endArrow=open;endSize=14;sourcePerimeterSpacing=8;targetPerimeterSpacing=8;strokeWidth=10;" parent="1" source="Dxjzg4d-xkrHuTBMKeB6-20" target="NgWnnuIfLwq-9tEsxxi--42" edge="1">
          <mxGeometry relative="1" as="geometry">
            <Array as="points">
              <mxPoint x="-2150" y="-635" />
              <mxPoint x="-2150" y="3415" />
              <mxPoint x="-2004" y="3415" />
              <mxPoint x="-2004" y="3410" />
            </Array>
          </mxGeometry>
        </mxCell>
        <mxCell id="Dxjzg4d-xkrHuTBMKeB6-20" value="&lt;font style=&quot;font-size: 100px;&quot;&gt;dflowfm&lt;/font&gt;" style="ellipse;whiteSpace=wrap;html=1;fontSize=50;sketch=1;curveFitting=1;jiggle=2;shadow=1;" parent="1" vertex="1">
          <mxGeometry x="-1167" y="-765" width="490" height="260" as="geometry" />
        </mxCell>
        <mxCell id="Dxjzg4d-xkrHuTBMKeB6-29" style="edgeStyle=orthogonalEdgeStyle;rounded=0;orthogonalLoop=1;jettySize=auto;html=1;fontSize=50;strokeWidth=10;sketch=1;curveFitting=1;jiggle=2;" parent="1" source="Dxjzg4d-xkrHuTBMKeB6-22" target="Dxjzg4d-xkrHuTBMKeB6-25" edge="1">
          <mxGeometry relative="1" as="geometry" />
        </mxCell>
        <mxCell id="Dxjzg4d-xkrHuTBMKeB6-22" value="&lt;span style=&quot;font-size: 50px;&quot;&gt;mdu&lt;/span&gt;" style="shape=parallelogram;perimeter=parallelogramPerimeter;whiteSpace=wrap;html=1;fixedSize=1;fontSize=50;sketch=1;curveFitting=1;jiggle=2;" parent="1" vertex="1">
          <mxGeometry x="-1860" y="-300" width="230" height="90" as="geometry" />
        </mxCell>
        <mxCell id="Dxjzg4d-xkrHuTBMKeB6-51" style="edgeStyle=orthogonalEdgeStyle;rounded=0;orthogonalLoop=1;jettySize=auto;html=1;fontSize=50;strokeWidth=10;sketch=1;curveFitting=1;jiggle=2;" parent="1" source="Dxjzg4d-xkrHuTBMKeB6-23" target="Dxjzg4d-xkrHuTBMKeB6-49" edge="1">
          <mxGeometry relative="1" as="geometry" />
        </mxCell>
        <mxCell id="Dxjzg4d-xkrHuTBMKeB6-23" value="&lt;span style=&quot;font-size: 50px;&quot;&gt;extold&lt;/span&gt;" style="shape=parallelogram;perimeter=parallelogramPerimeter;whiteSpace=wrap;html=1;fixedSize=1;fontSize=50;sketch=1;curveFitting=1;jiggle=2;" parent="1" vertex="1">
          <mxGeometry x="-1060" y="-300" width="190" height="80" as="geometry" />
        </mxCell>
        <mxCell id="Dxjzg4d-xkrHuTBMKeB6-46" style="edgeStyle=orthogonalEdgeStyle;rounded=0;orthogonalLoop=1;jettySize=auto;html=1;fontSize=50;entryX=0;entryY=0.5;entryDx=0;entryDy=0;strokeWidth=10;sketch=1;curveFitting=1;jiggle=2;" parent="1" source="Dxjzg4d-xkrHuTBMKeB6-24" target="Dxjzg4d-xkrHuTBMKeB6-45" edge="1">
          <mxGeometry relative="1" as="geometry">
            <Array as="points">
              <mxPoint x="-4280" y="-80" />
              <mxPoint x="-4520" y="-80" />
              <mxPoint x="-4520" y="35" />
            </Array>
          </mxGeometry>
        </mxCell>
        <mxCell id="Dxjzg4d-xkrHuTBMKeB6-48" style="edgeStyle=orthogonalEdgeStyle;rounded=0;orthogonalLoop=1;jettySize=auto;html=1;fontSize=50;entryX=0;entryY=0.5;entryDx=0;entryDy=0;strokeWidth=10;sketch=1;curveFitting=1;jiggle=2;" parent="1" source="Dxjzg4d-xkrHuTBMKeB6-24" target="Dxjzg4d-xkrHuTBMKeB6-47" edge="1">
          <mxGeometry relative="1" as="geometry">
            <Array as="points">
              <mxPoint x="-4280" y="-80" />
              <mxPoint x="-4520" y="-80" />
              <mxPoint x="-4520" y="205" />
            </Array>
          </mxGeometry>
        </mxCell>
        <mxCell id="Dxjzg4d-xkrHuTBMKeB6-24" value="&lt;font style=&quot;font-size: 50px;&quot;&gt;main_converter&lt;/font&gt;" style="rounded=1;whiteSpace=wrap;html=1;fontSize=50;sketch=1;curveFitting=1;jiggle=2;" parent="1" vertex="1">
          <mxGeometry x="-4480" y="-235" width="400" height="80" as="geometry" />
        </mxCell>
        <mxCell id="Dxjzg4d-xkrHuTBMKeB6-25" value="&lt;font style=&quot;font-size: 50px;&quot;&gt;legacy&lt;/font&gt;" style="rounded=1;whiteSpace=wrap;html=1;fontSize=50;sketch=1;curveFitting=1;jiggle=2;" parent="1" vertex="1">
          <mxGeometry x="-1840" y="-140" width="190" height="100" as="geometry" />
        </mxCell>
        <mxCell id="Dxjzg4d-xkrHuTBMKeB6-26" value="&lt;span style=&quot;font-size: 50px;&quot;&gt;ext&lt;/span&gt;" style="shape=parallelogram;perimeter=parallelogramPerimeter;whiteSpace=wrap;html=1;fixedSize=1;fontSize=50;sketch=1;curveFitting=1;jiggle=2;" parent="1" vertex="1">
          <mxGeometry x="1090" y="-210" width="150" height="80" as="geometry" />
        </mxCell>
        <mxCell id="Dxjzg4d-xkrHuTBMKeB6-30" value="&lt;font style=&quot;font-size: 50px;&quot;&gt;basemodel&lt;/font&gt;" style="shape=parallelogram;perimeter=parallelogramPerimeter;whiteSpace=wrap;html=1;fixedSize=1;sketch=1;curveFitting=1;jiggle=2;" parent="1" vertex="1">
          <mxGeometry x="3215" y="-190" width="320" height="90" as="geometry" />
        </mxCell>
        <mxCell id="Dxjzg4d-xkrHuTBMKeB6-37" style="edgeStyle=orthogonalEdgeStyle;rounded=0;orthogonalLoop=1;jettySize=auto;html=1;fontSize=32;strokeWidth=11;sketch=1;curveFitting=1;jiggle=2;" parent="1" source="Dxjzg4d-xkrHuTBMKeB6-36" target="Dxjzg4d-xkrHuTBMKeB6-20" edge="1">
          <mxGeometry relative="1" as="geometry" />
        </mxCell>
        <mxCell id="Dxjzg4d-xkrHuTBMKeB6-40" style="edgeStyle=orthogonalEdgeStyle;rounded=0;orthogonalLoop=1;jettySize=auto;html=1;fontSize=33;strokeWidth=11;sketch=1;curveFitting=1;jiggle=2;" parent="1" source="Dxjzg4d-xkrHuTBMKeB6-36" target="Dxjzg4d-xkrHuTBMKeB6-38" edge="1">
          <mxGeometry relative="1" as="geometry" />
        </mxCell>
        <mxCell id="Dxjzg4d-xkrHuTBMKeB6-36" value="&lt;font style=&quot;font-size: 200px;&quot;&gt;hydrolib&lt;/font&gt;" style="ellipse;whiteSpace=wrap;html=1;sketch=1;curveFitting=1;jiggle=2;" parent="1" vertex="1">
          <mxGeometry x="-3245" y="-1305" width="1050" height="370" as="geometry" />
        </mxCell>
        <mxCell id="Dxjzg4d-xkrHuTBMKeB6-41" style="edgeStyle=orthogonalEdgeStyle;rounded=0;orthogonalLoop=1;jettySize=auto;html=1;fontSize=50;strokeWidth=10;sketch=1;curveFitting=1;jiggle=2;" parent="1" source="Dxjzg4d-xkrHuTBMKeB6-38" target="Dxjzg4d-xkrHuTBMKeB6-42" edge="1">
          <mxGeometry relative="1" as="geometry">
            <mxPoint x="-3930" y="-360" as="targetPoint" />
          </mxGeometry>
        </mxCell>
        <mxCell id="Dxjzg4d-xkrHuTBMKeB6-38" value="&lt;font style=&quot;font-size: 100px;&quot;&gt;tools&lt;/font&gt;" style="ellipse;whiteSpace=wrap;html=1;fontSize=50;sketch=1;curveFitting=1;jiggle=2;" parent="1" vertex="1">
          <mxGeometry x="-4500" y="-670" width="445" height="205" as="geometry" />
        </mxCell>
        <mxCell id="Dxjzg4d-xkrHuTBMKeB6-43" style="edgeStyle=orthogonalEdgeStyle;rounded=0;orthogonalLoop=1;jettySize=auto;html=1;fontSize=50;strokeWidth=10;sketch=1;curveFitting=1;jiggle=2;" parent="1" source="Dxjzg4d-xkrHuTBMKeB6-42" target="Dxjzg4d-xkrHuTBMKeB6-24" edge="1">
          <mxGeometry relative="1" as="geometry" />
        </mxCell>
        <mxCell id="qwBRYWq9sjNHebLPFXFG-6" style="edgeStyle=orthogonalEdgeStyle;rounded=0;orthogonalLoop=1;jettySize=auto;html=1;fontSize=50;strokeWidth=10;sketch=1;curveFitting=1;jiggle=2;" parent="1" source="Dxjzg4d-xkrHuTBMKeB6-42" target="qwBRYWq9sjNHebLPFXFG-5" edge="1">
          <mxGeometry relative="1" as="geometry" />
        </mxCell>
        <mxCell id="qwBRYWq9sjNHebLPFXFG-11" style="edgeStyle=orthogonalEdgeStyle;rounded=0;orthogonalLoop=1;jettySize=auto;html=1;fontSize=50;strokeWidth=11;sketch=1;curveFitting=1;jiggle=2;" parent="1" source="Dxjzg4d-xkrHuTBMKeB6-42" target="qwBRYWq9sjNHebLPFXFG-9" edge="1">
          <mxGeometry relative="1" as="geometry">
            <Array as="points">
              <mxPoint x="-3770" y="-320" />
            </Array>
          </mxGeometry>
        </mxCell>
        <mxCell id="qwBRYWq9sjNHebLPFXFG-27" style="edgeStyle=orthogonalEdgeStyle;rounded=0;orthogonalLoop=1;jettySize=auto;html=1;strokeWidth=11;sketch=1;curveFitting=1;jiggle=2;" parent="1" source="Dxjzg4d-xkrHuTBMKeB6-42" target="qwBRYWq9sjNHebLPFXFG-17" edge="1">
          <mxGeometry relative="1" as="geometry" />
        </mxCell>
        <mxCell id="qwBRYWq9sjNHebLPFXFG-28" style="edgeStyle=orthogonalEdgeStyle;rounded=0;orthogonalLoop=1;jettySize=auto;html=1;strokeWidth=11;sketch=1;curveFitting=1;jiggle=2;" parent="1" source="Dxjzg4d-xkrHuTBMKeB6-42" target="qwBRYWq9sjNHebLPFXFG-20" edge="1">
          <mxGeometry relative="1" as="geometry" />
        </mxCell>
        <mxCell id="NgWnnuIfLwq-9tEsxxi--36" style="edgeStyle=orthogonalEdgeStyle;rounded=0;sketch=1;hachureGap=4;jiggle=2;curveFitting=1;orthogonalLoop=1;jettySize=auto;html=1;fontFamily=Architects Daughter;fontSource=https%3A%2F%2Ffonts.googleapis.com%2Fcss%3Ffamily%3DArchitects%2BDaughter;fontSize=16;startSize=14;endArrow=open;endSize=14;sourcePerimeterSpacing=8;targetPerimeterSpacing=8;strokeWidth=10;" parent="1" source="Dxjzg4d-xkrHuTBMKeB6-42" target="NgWnnuIfLwq-9tEsxxi--34" edge="1">
          <mxGeometry relative="1" as="geometry" />
        </mxCell>
        <mxCell id="Dxjzg4d-xkrHuTBMKeB6-42" value="&lt;span style=&quot;font-size: 50px;&quot;&gt;ext_old_to_new&lt;/span&gt;" style="shape=parallelogram;perimeter=parallelogramPerimeter;whiteSpace=wrap;html=1;fixedSize=1;fontSize=50;sketch=1;curveFitting=1;jiggle=2;" parent="1" vertex="1">
          <mxGeometry x="-4490" y="-360" width="420" height="80" as="geometry" />
        </mxCell>
        <mxCell id="Dxjzg4d-xkrHuTBMKeB6-45" value="&lt;font style=&quot;font-size: 40px;&quot;&gt;ext_old_to_new&lt;/font&gt;" style="shape=hexagon;perimeter=hexagonPerimeter2;whiteSpace=wrap;html=1;fixedSize=1;fontSize=40;sketch=1;curveFitting=1;jiggle=2;" parent="1" vertex="1">
          <mxGeometry x="-4440" y="-10" width="345" height="90" as="geometry" />
        </mxCell>
        <mxCell id="Dxjzg4d-xkrHuTBMKeB6-47" value="&lt;font style=&quot;font-size: 40px;&quot;&gt;ext_old_to_new_dir_recursive&lt;/font&gt;" style="shape=hexagon;perimeter=hexagonPerimeter2;whiteSpace=wrap;html=1;fixedSize=1;fontSize=40;sketch=1;curveFitting=1;jiggle=2;" parent="1" vertex="1">
          <mxGeometry x="-4440" y="150" width="580" height="110" as="geometry" />
        </mxCell>
        <mxCell id="Dxjzg4d-xkrHuTBMKeB6-54" style="edgeStyle=orthogonalEdgeStyle;rounded=0;orthogonalLoop=1;jettySize=auto;html=1;strokeWidth=11;sketch=1;curveFitting=1;jiggle=2;" parent="1" source="Dxjzg4d-xkrHuTBMKeB6-49" target="Dxjzg4d-xkrHuTBMKeB6-56" edge="1">
          <mxGeometry relative="1" as="geometry" />
        </mxCell>
        <mxCell id="Dxjzg4d-xkrHuTBMKeB6-49" value="&lt;font style=&quot;font-size: 50px;&quot;&gt;models&lt;/font&gt;" style="rounded=1;whiteSpace=wrap;html=1;fontSize=50;sketch=1;curveFitting=1;jiggle=2;" parent="1" vertex="1">
          <mxGeometry x="-1075" y="-140" width="220" height="100" as="geometry" />
        </mxCell>
        <mxCell id="B5O9wknoTAWuZ_4iNHYP-4" value="" style="group;sketch=1;curveFitting=1;jiggle=2;" parent="1" vertex="1" connectable="0">
          <mxGeometry x="-1460" y="190" width="1500" height="1755" as="geometry" />
        </mxCell>
        <mxCell id="Dxjzg4d-xkrHuTBMKeB6-56" value="" style="rounded=0;whiteSpace=wrap;html=1;fillColor=none;strokeWidth=9;sketch=1;curveFitting=1;jiggle=2;" parent="B5O9wknoTAWuZ_4iNHYP-4" vertex="1">
          <mxGeometry y="95" width="1500" height="1660" as="geometry" />
        </mxCell>
        <mxCell id="Dxjzg4d-xkrHuTBMKeB6-58" value="&lt;span style=&quot;text-wrap: wrap;&quot;&gt;&lt;font style=&quot;font-size: 50px;&quot;&gt;models&lt;/font&gt;&lt;/span&gt;" style="text;html=1;align=center;verticalAlign=middle;resizable=0;points=[];autosize=1;strokeColor=none;fillColor=none;sketch=1;curveFitting=1;jiggle=2;" parent="B5O9wknoTAWuZ_4iNHYP-4" vertex="1">
          <mxGeometry width="180" height="70" as="geometry" />
        </mxCell>
        <mxCell id="node0" value="&lt;p style=&quot;margin:0px;margin-top:4px;text-align:center;&quot;&gt;&lt;b&gt;&lt;font style=&quot;font-size: 20px;&quot; color=&quot;#ff3399&quot;&gt;ExtOldBoundaryQuantity&lt;/font&gt;&lt;/b&gt;&lt;/p&gt;&lt;hr size=&quot;1&quot;&gt;&lt;p style=&quot;margin:0 0 0 4px;line-height:1.6;&quot;&gt; WaterLevelBnd: &lt;br&gt; NeumannBnd: &lt;br&gt; RiemannBnd: &lt;br&gt; OutflowBnd: &lt;br&gt; VelocityBnd: &lt;br&gt; DischargeBnd: &lt;br&gt; RiemannVelocityBnd: &lt;br&gt; SalinityBnd: &lt;br&gt; TemperatureBnd: &lt;br&gt; SedimentBnd: &lt;br&gt; UXUYAdvectionVelocityBnd: &lt;br&gt; NormalVelocityBnd: &lt;br&gt; TangentialVelocityBnd: &lt;br&gt; QhBnd: &lt;/p&gt;" style="verticalAlign=top;align=left;overflow=fill;fontSize=14;fontFamily=Helvetica;html=1;rounded=0;shadow=0;comic=0;labelBackgroundColor=none;strokeWidth=1;sketch=1;curveFitting=1;jiggle=2;" parent="B5O9wknoTAWuZ_4iNHYP-4" vertex="1">
          <mxGeometry x="121" y="165" width="299" height="361" as="geometry" />
        </mxCell>
        <mxCell id="Dxjzg4d-xkrHuTBMKeB6-1" value="&lt;p style=&quot;margin:0px;margin-top:4px;text-align:center;&quot;&gt;&lt;b&gt;&lt;font style=&quot;font-size: 20px;&quot; color=&quot;#ff3399&quot;&gt;ExtOldMeteoQuantity&lt;/font&gt;&lt;/b&gt;&lt;/p&gt;&lt;hr size=&quot;1&quot;&gt;&lt;p style=&quot;margin:0 0 0 4px;line-height:1.6;&quot;&gt; WindX: &lt;br&gt; WindY: &lt;br&gt; WindXY: &lt;br&gt; AirPressureWindXWindY: &lt;br&gt; AirPressureWindXWindYCharnock: &lt;br&gt; AtmosphericPressure: &lt;br&gt; Rainfall: &lt;br&gt; RainfallRate: &lt;br&gt; HumidityAirTemperatureCloudiness: &lt;br&gt; HumidityAirTemperatureCloudinessSolarRadiation: &lt;br&gt; DewPointAirTemperatureCloudiness: &lt;br&gt; LongWaveRadiation: &lt;br&gt; SolarRadiation: &lt;br&gt; DischargeSalinityTemperatureSorSin: &lt;br&gt; NudgeSalinityTemperature: &lt;br&gt; AirPressure: &lt;br&gt; StressX: &lt;br&gt; StressY: &lt;br&gt; AirTemperature: &lt;br&gt; Cloudiness: &lt;br&gt; Humidity: &lt;br&gt; StressXY: &lt;br&gt; AirpressureStressXStressY: &lt;br&gt; WindSpeed: &lt;br&gt; WindFromDirection: &lt;br&gt; DewpointAirTemperatureCloudinessSolarradiation: &lt;br&gt; AirDensity: &lt;br&gt; Charnock: &lt;br&gt; Dewpoint: &lt;/p&gt;" style="verticalAlign=top;align=left;overflow=fill;fontSize=14;fontFamily=Helvetica;html=1;rounded=0;shadow=0;comic=0;labelBackgroundColor=none;strokeWidth=1;sketch=1;curveFitting=1;jiggle=2;" parent="B5O9wknoTAWuZ_4iNHYP-4" vertex="1">
          <mxGeometry x="560" y="165" width="394" height="706" as="geometry" />
        </mxCell>
        <mxCell id="Dxjzg4d-xkrHuTBMKeB6-2" value="&lt;p style=&quot;margin:0px;margin-top:4px;text-align:center;&quot;&gt;&lt;b&gt;&lt;font style=&quot;font-size: 20px;&quot; color=&quot;#ff3399&quot;&gt;ExtOldQuantity&lt;/font&gt;&lt;/b&gt;&lt;/p&gt;&lt;hr size=&quot;1&quot;&gt;&lt;p style=&quot;margin:0 0 0 4px;line-height:1.6;&quot;&gt; WaterLevelBnd: &lt;br&gt; NeumannBnd: &lt;br&gt; RiemannBnd: &lt;br&gt; OutflowBnd: &lt;br&gt; VelocityBnd: &lt;br&gt; DischargeBnd: &lt;br&gt; RiemannVelocityBnd: &lt;br&gt; SalinityBnd: &lt;br&gt; TemperatureBnd: &lt;br&gt; SedimentBnd: &lt;br&gt; UXUYAdvectionVelocityBnd: &lt;br&gt; NormalVelocityBnd: &lt;br&gt; TangentialVelocityBnd: &lt;br&gt; QhBnd: &lt;br&gt; WindX: &lt;br&gt; WindY: &lt;br&gt; WindXY: &lt;br&gt; AirPressureWindXWindY: &lt;br&gt; AirPressureWindXWindYCharnock: &lt;br&gt; AtmosphericPressure: &lt;br&gt; Rainfall: &lt;br&gt; RainfallRate: &lt;br&gt; HumidityAirTemperatureCloudiness: &lt;br&gt; HumidityAirTemperatureCloudinessSolarRadiation: &lt;br&gt; DewPointAirTemperatureCloudiness: &lt;br&gt; LongWaveRadiation: &lt;br&gt; SolarRadiation: &lt;br&gt; DischargeSalinityTemperatureSorSin: &lt;br&gt; NudgeSalinityTemperature: &lt;br&gt; AirPressure: &lt;br&gt; StressX: &lt;br&gt; StressY: &lt;br&gt; AirTemperature: &lt;br&gt; Cloudiness: &lt;br&gt; Humidity: &lt;br&gt; StressXY: &lt;br&gt; AirpressureStressXStressY: &lt;br&gt; WindSpeed: &lt;br&gt; WindFromDirection: &lt;br&gt; DewpointAirTemperatureCloudinessSolarradiation: &lt;br&gt; AirDensity: &lt;br&gt; Charnock: &lt;br&gt; Dewpoint: &lt;br&gt; Pump: &lt;br&gt; DamLevel: &lt;br&gt; GateLowerEdgeLevel: &lt;br&gt; GeneralStructure: &lt;br&gt; InitialWaterLevel: &lt;br&gt; InitialSalinity: &lt;br&gt; InitialSalinityTop: &lt;br&gt; InitialTemperature: &lt;br&gt; InitialVerticalTemperatureProfile: &lt;br&gt; InitialVerticalSalinityProfile: &lt;br&gt; BedLevel: &lt;br&gt; FrictionCoefficient: &lt;br&gt; HorizontalEddyViscosityCoefficient: &lt;br&gt; InternalTidesFrictionCoefficient: &lt;br&gt; HorizontalEddyDiffusivityCoefficient: &lt;br&gt; AdvectionType: &lt;br&gt; IBotLevType: &lt;br&gt; ShiptXY: &lt;br&gt; MovingStationXY: &lt;br&gt; WaveSignificantHeight: &lt;br&gt; WavePeriod: &lt;/p&gt;" style="verticalAlign=top;align=left;overflow=fill;fontSize=14;fontFamily=Helvetica;html=1;rounded=0;shadow=0;comic=0;labelBackgroundColor=none;strokeWidth=1;sketch=1;curveFitting=1;jiggle=2;" parent="B5O9wknoTAWuZ_4iNHYP-4" vertex="1">
          <mxGeometry x="1060" y="165" width="357" height="1508" as="geometry" />
        </mxCell>
        <mxCell id="Dxjzg4d-xkrHuTBMKeB6-3" value="&lt;p style=&quot;margin:0px;margin-top:4px;text-align:center;&quot;&gt;&lt;b&gt;&lt;font style=&quot;font-size: 20px;&quot; color=&quot;#ff3399&quot;&gt;ExtOldFileType&lt;/font&gt;&lt;/b&gt;&lt;/p&gt;&lt;hr size=&quot;1&quot;&gt;&lt;p style=&quot;margin:0 0 0 4px;line-height:1.6;&quot;&gt; TimeSeries: &lt;br&gt; TimeSeriesMagnitudeAndDirection: &lt;br&gt; SpatiallyVaryingWindPressure: &lt;br&gt; ArcInfo: &lt;br&gt; SpiderWebData: &lt;br&gt; CurvilinearData: &lt;br&gt; Samples: &lt;br&gt; TriangulationMagnitudeAndDirection: &lt;br&gt; Polyline: &lt;br&gt; InsidePolygon: &lt;br&gt; NetCDFGridData: &lt;br&gt; NetCDFWaveData: &lt;/p&gt;" style="verticalAlign=top;align=left;overflow=fill;fontSize=14;fontFamily=Helvetica;html=1;rounded=0;shadow=0;comic=0;labelBackgroundColor=none;strokeWidth=1;sketch=1;curveFitting=1;jiggle=2;" parent="B5O9wknoTAWuZ_4iNHYP-4" vertex="1">
          <mxGeometry x="121" y="575" width="299.5" height="312" as="geometry" />
        </mxCell>
        <mxCell id="Dxjzg4d-xkrHuTBMKeB6-4" value="&lt;p style=&quot;margin:0px;margin-top:4px;text-align:center;&quot;&gt;&lt;b&gt;&lt;font style=&quot;font-size: 20px;&quot; color=&quot;#ff3399&quot;&gt;ExtOldMethod&lt;/font&gt;&lt;/b&gt;&lt;/p&gt;&lt;hr size=&quot;1&quot;&gt;&lt;p style=&quot;margin:0 0 0 4px;line-height:1.6;&quot;&gt; PassThrough: &lt;br&gt; InterpolateTimeAndSpace: &lt;br&gt; InterpolateTimeAndSpaceSaveWeights: &lt;br&gt; InterpolateSpace: &lt;br&gt; InterpolateTime: &lt;br&gt; AveragingSpace: &lt;br&gt; InterpolateExtrapolateTime: &lt;br&gt; Obsolete: &lt;/p&gt;" style="verticalAlign=top;align=left;overflow=fill;fontSize=14;fontFamily=Helvetica;html=1;rounded=0;shadow=0;comic=0;labelBackgroundColor=none;strokeWidth=1;sketch=1;curveFitting=1;jiggle=2;" parent="B5O9wknoTAWuZ_4iNHYP-4" vertex="1">
          <mxGeometry x="120" y="975" width="300" height="220" as="geometry" />
        </mxCell>
        <mxCell id="Dxjzg4d-xkrHuTBMKeB6-5" value="&lt;p style=&quot;margin:0px;margin-top:4px;text-align:center;&quot;&gt;&lt;b&gt;&lt;font style=&quot;font-size: 20px;&quot; color=&quot;#ff3399&quot;&gt;ExtOldExtrapolationMethod&lt;/font&gt;&lt;/b&gt;&lt;/p&gt;&lt;hr size=&quot;1&quot;&gt;&lt;p style=&quot;margin:0 0 0 4px;line-height:1.6;&quot;&gt; NoSpatialExtrapolation: &lt;br&gt; SpatialExtrapolationOutsideOfSourceDataBoundingBox: &lt;/p&gt;" style="verticalAlign=top;align=left;overflow=fill;fontSize=14;fontFamily=Helvetica;html=1;rounded=0;shadow=0;comic=0;labelBackgroundColor=none;strokeWidth=1;sketch=1;curveFitting=1;jiggle=2;" parent="B5O9wknoTAWuZ_4iNHYP-4" vertex="1">
          <mxGeometry x="570" y="955" width="384" height="89" as="geometry" />
        </mxCell>
        <mxCell id="B5O9wknoTAWuZ_4iNHYP-2" value="&lt;p style=&quot;margin:0px;margin-top:4px;text-align:center;&quot;&gt;&lt;b&gt;&lt;font style=&quot;font-size: 20px;&quot; color=&quot;#ff3399&quot;&gt;ExtOldForcing&lt;/font&gt;&lt;/b&gt;&lt;/p&gt;&lt;hr size=&quot;1&quot;&gt;&lt;p style=&quot;margin:0 0 0 4px;line-height:1.6;&quot;&gt; quantity: &lt;br&gt; filename: &lt;br&gt; varname: &lt;br&gt; sourcemask: &lt;br&gt; filetype: &lt;br&gt; method: &lt;br&gt; extrapolation_method: &lt;br&gt; maxsearchradius: &lt;br&gt; operand: &lt;br&gt; value: &lt;br&gt; factor: &lt;br&gt; ifrctyp: &lt;br&gt; averagingtype: &lt;br&gt; relativesearchcellsize: &lt;br&gt; extrapoltol: &lt;br&gt; percentileminmax: &lt;br&gt; area: &lt;br&gt; nummin: &lt;/p&gt;&lt;hr size=&quot;1&quot;&gt;&lt;p style=&quot;margin:0 0 0 4px;line-height:1.6;&quot;&gt; is_intermediate_link(self): &lt;br&gt; validate_quantity(cls, value): &lt;br&gt; validate_operand(cls, value): &lt;br&gt; validate_forcing(cls, values): &lt;/p&gt;" style="verticalAlign=top;align=left;overflow=fill;fontSize=14;fontFamily=Helvetica;html=1;rounded=0;shadow=0;comic=0;labelBackgroundColor=none;strokeWidth=1;sketch=1;curveFitting=1;jiggle=2;" parent="B5O9wknoTAWuZ_4iNHYP-4" vertex="1">
          <mxGeometry x="583.5" y="1085" width="357" height="560" as="geometry" />
        </mxCell>
        <mxCell id="B5O9wknoTAWuZ_4iNHYP-5" value="&lt;p style=&quot;margin:0px;margin-top:4px;text-align:center;&quot;&gt;&lt;b&gt;&lt;font color=&quot;#ff3399&quot; style=&quot;font-size: 20px;&quot;&gt;ExtOldTracerQuantity&lt;/font&gt;&lt;/b&gt;&lt;/p&gt;&lt;hr size=&quot;1&quot;&gt;&lt;p style=&quot;margin:0 0 0 4px;line-height:1.6;&quot;&gt; TracerBnd: &lt;br&gt; InitialTracer: &lt;/p&gt;" style="verticalAlign=top;align=left;overflow=fill;fontSize=14;fontFamily=Helvetica;html=1;rounded=0;shadow=0;comic=0;labelBackgroundColor=none;strokeWidth=1;sketch=1;curveFitting=1;jiggle=2;" parent="B5O9wknoTAWuZ_4iNHYP-4" vertex="1">
          <mxGeometry x="121" y="1275" width="279" height="89" as="geometry" />
        </mxCell>
        <mxCell id="B5O9wknoTAWuZ_4iNHYP-6" value="&lt;p style=&quot;margin:0px;margin-top:4px;text-align:center;&quot;&gt;&lt;b&gt;&lt;font color=&quot;#ff3399&quot; style=&quot;font-size: 20px;&quot;&gt;ExtOldModel&lt;/font&gt;&lt;/b&gt;&lt;/p&gt;&lt;hr size=&quot;1&quot;&gt;&lt;p style=&quot;margin:0 0 0 4px;line-height:1.6;&quot;&gt; comment&lt;/p&gt;&lt;p style=&quot;margin:0 0 0 4px;line-height:1.6;&quot;&gt;&lt;span style=&quot;background-color: initial;&quot;&gt;forcing:&lt;/span&gt;&lt;/p&gt;&lt;p style=&quot;margin:0 0 0 4px;line-height:1.6;&quot;&gt;_ext(cls)&lt;/p&gt;&lt;p style=&quot;margin:0 0 0 4px;line-height:1.6;&quot;&gt;_filename(cls)&lt;/p&gt;&lt;p style=&quot;margin:0 0 0 4px;line-height:1.6;&quot;&gt;dict(self, *args, **kwargs)&lt;/p&gt;&lt;p style=&quot;margin:0 0 0 4px;line-height:1.6;&quot;&gt;_get_serializer(cls)&lt;/p&gt;&lt;p style=&quot;margin:0 0 0 4px;line-height:1.6;&quot;&gt;_get_parser(cls)&lt;/p&gt;" style="verticalAlign=top;align=left;overflow=fill;fontSize=14;fontFamily=Helvetica;html=1;rounded=0;shadow=0;comic=0;labelBackgroundColor=none;strokeWidth=1;sketch=1;curveFitting=1;jiggle=2;" parent="B5O9wknoTAWuZ_4iNHYP-4" vertex="1">
          <mxGeometry x="121" y="1445" width="309" height="205" as="geometry" />
        </mxCell>
        <mxCell id="qwBRYWq9sjNHebLPFXFG-8" style="edgeStyle=orthogonalEdgeStyle;rounded=0;orthogonalLoop=1;jettySize=auto;html=1;fontSize=50;strokeWidth=10;sketch=1;curveFitting=1;jiggle=2;" parent="1" source="qwBRYWq9sjNHebLPFXFG-5" target="qwBRYWq9sjNHebLPFXFG-7" edge="1">
          <mxGeometry relative="1" as="geometry" />
        </mxCell>
        <mxCell id="qwBRYWq9sjNHebLPFXFG-5" value="&lt;font style=&quot;font-size: 50px;&quot;&gt;meteo_converter&lt;/font&gt;" style="rounded=1;whiteSpace=wrap;html=1;fontSize=50;sketch=1;curveFitting=1;jiggle=2;" parent="1" vertex="1">
          <mxGeometry x="-5090" y="-230" width="430" height="80" as="geometry" />
        </mxCell>
        <mxCell id="qwBRYWq9sjNHebLPFXFG-7" value="&lt;font style=&quot;font-size: 40px;&quot;&gt;MeteoConverter&lt;/font&gt;" style="shape=hexagon;perimeter=hexagonPerimeter2;whiteSpace=wrap;html=1;fixedSize=1;fontSize=40;sketch=1;curveFitting=1;jiggle=2;" parent="1" vertex="1">
          <mxGeometry x="-5095" width="440" height="100" as="geometry" />
        </mxCell>
        <mxCell id="qwBRYWq9sjNHebLPFXFG-12" style="edgeStyle=orthogonalEdgeStyle;rounded=0;orthogonalLoop=1;jettySize=auto;html=1;fontSize=50;strokeWidth=11;sketch=1;curveFitting=1;jiggle=2;" parent="1" source="qwBRYWq9sjNHebLPFXFG-9" target="qwBRYWq9sjNHebLPFXFG-10" edge="1">
          <mxGeometry relative="1" as="geometry" />
        </mxCell>
        <mxCell id="qwBRYWq9sjNHebLPFXFG-9" value="&lt;font style=&quot;font-size: 50px;&quot;&gt;base&lt;/font&gt;&lt;span style=&quot;font-size: 50px; background-color: initial;&quot;&gt;_converter&lt;/span&gt;" style="rounded=1;whiteSpace=wrap;html=1;fontSize=50;sketch=1;curveFitting=1;jiggle=2;" parent="1" vertex="1">
          <mxGeometry x="-4020" y="-235" width="440" height="80" as="geometry" />
        </mxCell>
        <mxCell id="qwBRYWq9sjNHebLPFXFG-10" value="&lt;font style=&quot;font-size: 40px;&quot;&gt;BaseConverter&lt;/font&gt;" style="shape=hexagon;perimeter=hexagonPerimeter2;whiteSpace=wrap;html=1;fixedSize=1;fontSize=40;sketch=1;curveFitting=1;jiggle=2;" parent="1" vertex="1">
          <mxGeometry x="-3960" width="320" height="80" as="geometry" />
        </mxCell>
        <mxCell id="qwBRYWq9sjNHebLPFXFG-14" value="" style="group;sketch=1;curveFitting=1;jiggle=2;" parent="1" vertex="1" connectable="0">
          <mxGeometry x="2610" y="150" width="1515" height="1770" as="geometry" />
        </mxCell>
        <mxCell id="qwBRYWq9sjNHebLPFXFG-1" value="&lt;p style=&quot;margin:0px;margin-top:4px;text-align:center;&quot;&gt;&lt;b&gt;&lt;font color=&quot;#ff66b3&quot; style=&quot;font-size: 20px;&quot;&gt;BaseModel&lt;/font&gt;&lt;/b&gt;&lt;/p&gt;&lt;hr size=&quot;1&quot;&gt;&lt;p style=&quot;margin:0 0 0 4px;line-height:1.6;&quot;&gt; BaseModel.Config: &lt;/p&gt;&lt;hr size=&quot;1&quot;&gt;&lt;p style=&quot;margin:0 0 0 4px;line-height:1.6;&quot;&gt; __init__(self, **data: Any): &lt;br&gt; is_file_link(self): &lt;br&gt; is_intermediate_link(self): &lt;br&gt; show_tree(self, indent=0): &lt;br&gt; _apply_recurse(self, f, *args, **kwargs): &lt;br&gt; _get_identifier(self, data: dict): &lt;/p&gt;" style="verticalAlign=top;align=left;overflow=fill;fontSize=14;fontFamily=Helvetica;html=1;rounded=0;shadow=0;comic=0;labelBackgroundColor=none;strokeWidth=1;sketch=1;curveFitting=1;jiggle=2;" parent="qwBRYWq9sjNHebLPFXFG-14" vertex="1">
          <mxGeometry x="318" y="251" width="279" height="229" as="geometry" />
        </mxCell>
        <mxCell id="qwBRYWq9sjNHebLPFXFG-2" value="&lt;p style=&quot;margin:0px;margin-top:4px;text-align:center;&quot;&gt;&lt;b&gt;&lt;font style=&quot;font-size: 20px;&quot; color=&quot;#ff66b3&quot;&gt;FileModel&lt;/font&gt;&lt;/b&gt;&lt;/p&gt;&lt;hr size=&quot;1&quot;&gt;&lt;p style=&quot;margin:0 0 0 4px;line-height:1.6;&quot;&gt; _has_been_loaded_from_cache: &lt;br&gt; filepath: &lt;br&gt; context: &lt;br&gt; _absolute_anchor_path: &lt;br&gt; __slots__: &lt;br&gt; _file_models_cache: &lt;br&gt; filepath: &lt;br&gt; _absolute_anchor_path: &lt;/p&gt;&lt;hr size=&quot;1&quot;&gt;&lt;p style=&quot;margin:0 0 0 4px;line-height:1.6;&quot;&gt; __new__(cls, filepath: Optional[PathOrStr] = None, *args, **kwargs): &lt;br&gt; __init__(         self,         filepath: Optional[PathOrStr] = None,         resolve_casing: bool = False,         recurse: bool = True,         path_style: Optional[str] = None,         *args,         **kwargs,     ): &lt;br&gt; _should_load_model(cls, context: FileLoadContext): &lt;br&gt; _post_init_load(self): &lt;br&gt; _resolved_filepath(self): &lt;br&gt; save_location(self): &lt;br&gt; is_file_link(self): &lt;br&gt; _get_updated_file_path(self, file_path: Path, loading_path: Path): &lt;br&gt; validate(cls: Type[&quot;FileModel&quot;], value: Any): &lt;br&gt; save(         self,         filepath: Optional[Path] = None,         recurse: bool = False,         path_style: Optional[str] = None,         exclude_unset: bool = False,     ): &lt;br&gt; _save_instance(self, save_settings: ModelSaveSettings): &lt;br&gt; _save_tree(         self, context: FileLoadContext, save_settings: ModelSaveSettings     ): &lt;br&gt; synchronize_filepaths(self): &lt;br&gt; _relative_mode(self): &lt;br&gt; _get_relative_mode_from_data(cls, data: Dict[str, Any]): &lt;br&gt; _generate_name(cls): &lt;br&gt; _save(self, save_settings: ModelSaveSettings): &lt;br&gt; _load(self, filepath: Path): &lt;br&gt; __str__(self): &lt;br&gt; _change_to_path(filepath): &lt;br&gt; _conform_filepath_to_pathlib(cls, value): &lt;/p&gt;" style="verticalAlign=top;align=left;overflow=fill;fontSize=14;fontFamily=Helvetica;html=1;rounded=0;shadow=0;comic=0;labelBackgroundColor=none;strokeWidth=1;sketch=1;curveFitting=1;jiggle=2;" parent="qwBRYWq9sjNHebLPFXFG-14" vertex="1">
          <mxGeometry x="265" y="700" width="405" height="710" as="geometry" />
        </mxCell>
        <mxCell id="qwBRYWq9sjNHebLPFXFG-3" value="" style="html=1;rounded=1;edgeStyle=orthogonalEdgeStyle;dashed=0;startArrow=block;startSize=12;endArrow=none;strokeColor=#FFF4C3;entryX=0.500;entryY=0.000;entryDx=0;entryDy=0;strokeWidth=9;exitX=0.5;exitY=0;exitDx=0;exitDy=0;sketch=1;curveFitting=1;jiggle=2;" parent="qwBRYWq9sjNHebLPFXFG-14" source="qwBRYWq9sjNHebLPFXFG-2" target="qwBRYWq9sjNHebLPFXFG-1" edge="1">
          <mxGeometry width="50" height="50" relative="1" as="geometry">
            <Array as="points">
              <mxPoint x="467" y="630" />
              <mxPoint x="617" y="630" />
              <mxPoint x="617" y="230" />
              <mxPoint x="457" y="230" />
            </Array>
            <mxPoint x="405" y="650" as="sourcePoint" />
          </mxGeometry>
        </mxCell>
        <mxCell id="qwBRYWq9sjNHebLPFXFG-4" value="&lt;span style=&quot;text-wrap: wrap;&quot;&gt;&lt;font style=&quot;font-size: 50px;&quot;&gt;basemodel&lt;/font&gt;&lt;/span&gt;" style="text;html=1;align=center;verticalAlign=middle;resizable=0;points=[];autosize=1;strokeColor=none;fillColor=none;sketch=1;curveFitting=1;jiggle=2;" parent="qwBRYWq9sjNHebLPFXFG-14" vertex="1">
          <mxGeometry width="270" height="70" as="geometry" />
        </mxCell>
        <mxCell id="qwBRYWq9sjNHebLPFXFG-13" value="" style="rounded=0;whiteSpace=wrap;html=1;fillColor=none;strokeWidth=9;sketch=1;curveFitting=1;jiggle=2;" parent="qwBRYWq9sjNHebLPFXFG-14" vertex="1">
          <mxGeometry x="15" y="110" width="1500" height="1660" as="geometry" />
        </mxCell>
        <mxCell id="qwBRYWq9sjNHebLPFXFG-15" style="edgeStyle=orthogonalEdgeStyle;rounded=0;orthogonalLoop=1;jettySize=auto;html=1;strokeWidth=11;exitX=0.5;exitY=1;exitDx=0;exitDy=0;sketch=1;curveFitting=1;jiggle=2;" parent="1" source="Dxjzg4d-xkrHuTBMKeB6-30" target="qwBRYWq9sjNHebLPFXFG-13" edge="1">
          <mxGeometry relative="1" as="geometry">
            <mxPoint x="-120" y="-260" as="sourcePoint" />
            <mxPoint x="100" y="195" as="targetPoint" />
          </mxGeometry>
        </mxCell>
        <mxCell id="qwBRYWq9sjNHebLPFXFG-16" style="edgeStyle=orthogonalEdgeStyle;rounded=0;orthogonalLoop=1;jettySize=auto;html=1;fontSize=50;strokeWidth=11;sketch=1;curveFitting=1;jiggle=2;" parent="1" source="qwBRYWq9sjNHebLPFXFG-17" target="qwBRYWq9sjNHebLPFXFG-26" edge="1">
          <mxGeometry relative="1" as="geometry">
            <mxPoint x="-3085" y="-12.5" as="targetPoint" />
          </mxGeometry>
        </mxCell>
        <mxCell id="qwBRYWq9sjNHebLPFXFG-17" value="enum_converters" style="rounded=1;whiteSpace=wrap;html=1;fontSize=50;sketch=1;curveFitting=1;jiggle=2;" parent="1" vertex="1">
          <mxGeometry x="-3340" y="-247.5" width="440" height="80" as="geometry" />
        </mxCell>
        <mxCell id="qwBRYWq9sjNHebLPFXFG-19" style="edgeStyle=orthogonalEdgeStyle;rounded=0;orthogonalLoop=1;jettySize=auto;html=1;fontSize=50;strokeWidth=11;sketch=1;curveFitting=1;jiggle=2;" parent="1" source="qwBRYWq9sjNHebLPFXFG-20" target="qwBRYWq9sjNHebLPFXFG-21" edge="1">
          <mxGeometry relative="1" as="geometry" />
        </mxCell>
        <mxCell id="qwBRYWq9sjNHebLPFXFG-20" value="converter_factory" style="rounded=1;whiteSpace=wrap;html=1;fontSize=50;sketch=1;curveFitting=1;jiggle=2;" parent="1" vertex="1">
          <mxGeometry x="-2790" y="-250" width="440" height="80" as="geometry" />
        </mxCell>
        <mxCell id="qwBRYWq9sjNHebLPFXFG-21" value="&lt;font style=&quot;font-size: 40px;&quot;&gt;ConverterFactory&lt;/font&gt;" style="shape=hexagon;perimeter=hexagonPerimeter2;whiteSpace=wrap;html=1;fixedSize=1;fontSize=40;sketch=1;curveFitting=1;jiggle=2;" parent="1" vertex="1">
          <mxGeometry x="-2740" y="-10" width="340" height="80" as="geometry" />
        </mxCell>
        <mxCell id="qwBRYWq9sjNHebLPFXFG-26" value="&lt;p style=&quot;margin:0px;margin-top:4px;text-align:center;&quot;&gt;&lt;/p&gt;&lt;p style=&quot;margin: 0px 0px 0px 4px; line-height: 1.6; font-size: 30px;&quot;&gt;&lt;font style=&quot;font-size: 30px;&quot;&gt;oldfiletype_to_forcing_file_type&lt;br&gt;&lt;/font&gt;&lt;/p&gt;&lt;p style=&quot;margin: 0px 0px 0px 4px; line-height: 1.6; font-size: 30px;&quot;&gt;&lt;font style=&quot;font-size: 30px;&quot;&gt;oldmethod_to_interpolation_method&lt;/font&gt;&lt;/p&gt;&lt;p style=&quot;margin: 0px 0px 0px 4px; line-height: 1.6; font-size: 30px;&quot;&gt;&lt;font style=&quot;font-size: 30px;&quot;&gt;oldmethod_to_averaging_type&lt;/font&gt;&lt;/p&gt;" style="verticalAlign=top;align=left;overflow=fill;fontSize=14;fontFamily=Helvetica;html=1;rounded=0;shadow=0;comic=0;labelBackgroundColor=none;strokeWidth=1;sketch=1;curveFitting=1;jiggle=2;" parent="1" vertex="1">
          <mxGeometry x="-3370" y="-50" width="500" height="170" as="geometry" />
        </mxCell>
        <mxCell id="qwBRYWq9sjNHebLPFXFG-29" value="&lt;p style=&quot;margin:0px;margin-top:4px;text-align:center;&quot;&gt;&lt;b&gt;&lt;font style=&quot;font-size: 20px;&quot; color=&quot;#ff3399&quot;&gt;ExtOldInitialConditionQuantity&lt;/font&gt;&lt;/b&gt;&lt;/p&gt;&lt;hr size=&quot;1&quot;&gt;&lt;p style=&quot;margin:0 0 0 4px;line-height:1.6;&quot;&gt; InitialWaterLevel: &lt;br&gt; InitialTemperature: &lt;br&gt; InitialVelocityX: &lt;br&gt; InitialVelocityY: &lt;br&gt; InitialVelocity: &lt;br&gt; InitialSalinity: &lt;br&gt; InitialSalinityTopUse: &lt;br&gt; InitialSalinityTop: &lt;br&gt; InitialVerticalTemperatureProfile: &lt;br&gt; InitialVerticalSalinityProfile: &lt;/p&gt;" style="verticalAlign=top;align=left;overflow=fill;fontSize=14;fontFamily=Helvetica;html=1;rounded=0;shadow=0;comic=0;labelBackgroundColor=none;strokeWidth=1;sketch=1;curveFitting=1;jiggle=2;fillColor=#60a917;fontColor=#ffffff;strokeColor=#2D7600;" parent="1" vertex="1">
          <mxGeometry x="-1970" y="360" width="450" height="266" as="geometry" />
        </mxCell>
        <mxCell id="qwBRYWq9sjNHebLPFXFG-30" value="&lt;font style=&quot;font-size: 50px;&quot;&gt;models&lt;/font&gt;" style="rounded=1;whiteSpace=wrap;html=1;fontSize=50;sketch=1;curveFitting=1;jiggle=2;" parent="1" vertex="1">
          <mxGeometry x="1020" y="25" width="220" height="100" as="geometry" />
        </mxCell>
        <mxCell id="qwBRYWq9sjNHebLPFXFG-31" style="edgeStyle=orthogonalEdgeStyle;rounded=0;orthogonalLoop=1;jettySize=auto;html=1;strokeWidth=11;entryX=0.5;entryY=0;entryDx=0;entryDy=0;sketch=1;curveFitting=1;jiggle=2;" parent="1" source="qwBRYWq9sjNHebLPFXFG-30" target="8ZbqEjZub7kzS0Q19izj-2" edge="1">
          <mxGeometry relative="1" as="geometry">
            <mxPoint x="1340" y="450" as="targetPoint" />
            <Array as="points">
              <mxPoint x="1125" y="110" />
              <mxPoint x="1125" y="110" />
            </Array>
          </mxGeometry>
        </mxCell>
        <mxCell id="qwBRYWq9sjNHebLPFXFG-32" style="edgeStyle=orthogonalEdgeStyle;rounded=0;orthogonalLoop=1;jettySize=auto;html=1;fontSize=50;strokeWidth=9;sketch=1;curveFitting=1;jiggle=2;" parent="1" source="Dxjzg4d-xkrHuTBMKeB6-26" target="qwBRYWq9sjNHebLPFXFG-30" edge="1">
          <mxGeometry relative="1" as="geometry">
            <mxPoint x="1130" y="-95" as="sourcePoint" />
          </mxGeometry>
        </mxCell>
        <mxCell id="8ZbqEjZub7kzS0Q19izj-1" value="&lt;span style=&quot;text-wrap: wrap;&quot;&gt;&lt;font style=&quot;font-size: 50px;&quot;&gt;models&lt;/font&gt;&lt;/span&gt;" style="text;html=1;align=center;verticalAlign=middle;resizable=0;points=[];autosize=1;strokeColor=none;fillColor=none;sketch=1;curveFitting=1;jiggle=2;" parent="1" vertex="1">
          <mxGeometry x="406" y="174" width="179" height="72" as="geometry" />
        </mxCell>
        <mxCell id="NgWnnuIfLwq-9tEsxxi--1" value="&lt;font style=&quot;font-size: 50px;&quot;&gt;basemodel&lt;/font&gt;" style="shape=parallelogram;perimeter=parallelogramPerimeter;whiteSpace=wrap;html=1;fixedSize=1;sketch=1;curveFitting=1;jiggle=2;" parent="1" vertex="1">
          <mxGeometry x="5074" y="-200" width="320" height="90" as="geometry" />
        </mxCell>
        <mxCell id="NgWnnuIfLwq-9tEsxxi--8" style="edgeStyle=orthogonalEdgeStyle;rounded=0;orthogonalLoop=1;jettySize=auto;html=1;strokeWidth=11;exitX=0.5;exitY=1;exitDx=0;exitDy=0;sketch=1;curveFitting=1;jiggle=2;" parent="1" source="NgWnnuIfLwq-9tEsxxi--1" target="NgWnnuIfLwq-9tEsxxi--7" edge="1">
          <mxGeometry relative="1" as="geometry">
            <mxPoint x="1739" y="-270" as="sourcePoint" />
            <mxPoint x="1959" y="185" as="targetPoint" />
          </mxGeometry>
        </mxCell>
        <mxCell id="NgWnnuIfLwq-9tEsxxi--6" value="&lt;span style=&quot;text-wrap: wrap;&quot;&gt;&lt;font style=&quot;font-size: 50px;&quot;&gt;inifield&lt;/font&gt;&lt;/span&gt;" style="text;html=1;align=center;verticalAlign=middle;resizable=0;points=[];autosize=1;strokeColor=none;fillColor=none;sketch=1;curveFitting=1;jiggle=2;" parent="1" vertex="1">
          <mxGeometry x="4513" y="136" width="160" height="72" as="geometry" />
        </mxCell>
        <mxCell id="NgWnnuIfLwq-9tEsxxi--33" style="edgeStyle=orthogonalEdgeStyle;rounded=0;orthogonalLoop=1;jettySize=auto;html=1;fontSize=50;strokeWidth=10;sketch=1;curveFitting=1;jiggle=2;fillColor=#60a917;strokeColor=#2D7600;" parent="1" source="NgWnnuIfLwq-9tEsxxi--34" target="NgWnnuIfLwq-9tEsxxi--35" edge="1">
          <mxGeometry relative="1" as="geometry" />
        </mxCell>
        <mxCell id="NgWnnuIfLwq-9tEsxxi--34" value="&lt;font style=&quot;font-size: 50px;&quot;&gt;initial_condition_converter&lt;/font&gt;" style="rounded=1;whiteSpace=wrap;html=1;fontSize=50;sketch=1;curveFitting=1;jiggle=2;fillColor=#60a917;fontColor=#ffffff;strokeColor=#2D7600;" parent="1" vertex="1">
          <mxGeometry x="-5917" y="-230" width="627" height="80" as="geometry" />
        </mxCell>
        <mxCell id="NgWnnuIfLwq-9tEsxxi--35" value="&lt;font style=&quot;font-size: 40px;&quot;&gt;InitialConditionConverter&lt;/font&gt;" style="shape=hexagon;perimeter=hexagonPerimeter2;whiteSpace=wrap;html=1;fixedSize=1;fontSize=40;sketch=1;curveFitting=1;jiggle=2;fillColor=#60a917;fontColor=#ffffff;strokeColor=#2D7600;" parent="1" vertex="1">
          <mxGeometry x="-5867.75" width="528.5" height="100" as="geometry" />
        </mxCell>
        <mxCell id="NgWnnuIfLwq-9tEsxxi--37" value="&lt;p style=&quot;margin:0px;margin-top:4px;text-align:center;&quot;&gt;&lt;b&gt;&lt;font color=&quot;#ff3399&quot; style=&quot;font-size: 20px;&quot;&gt;INIBasedModel&lt;/font&gt;&lt;/b&gt;&lt;/p&gt;&lt;hr size=&quot;1&quot;&gt;&lt;p style=&quot;margin:0 0 0 4px;line-height:1.6;&quot;&gt; _header: &lt;br&gt; _file_path_style_converter: &lt;br&gt; _scientific_notation_regex: &lt;br&gt; comments: &lt;/p&gt;&lt;hr size=&quot;1&quot;&gt;&lt;p style=&quot;margin:0 0 0 4px;line-height:1.6;&quot;&gt; INIBasedModel.Config: &lt;br&gt; INIBasedModel.Comments: &lt;/p&gt;&lt;hr size=&quot;1&quot;&gt;&lt;p style=&quot;margin:0 0 0 4px;line-height:1.6;&quot;&gt; _get_unknown_keyword_error_manager(cls): &lt;br&gt; _supports_comments(cls): &lt;br&gt; _duplicate_keys_as_list(cls): &lt;br&gt; get_list_delimiter(cls): &lt;br&gt; get_list_field_delimiter(cls, field_key: str): &lt;br&gt; _validate_unknown_keywords(cls, values): &lt;br&gt; _skip_nones_and_set_header(cls, values): &lt;br&gt; comments_matches_has_comments(cls, v): &lt;br&gt; replace_fortran_scientific_notation_for_floats(cls, value, field): &lt;br&gt; _replace_fortran_scientific_notation(cls, value): &lt;br&gt; validate(cls: Type[&quot;INIBasedModel&quot;], value: Any): &lt;br&gt; _exclude_fields(cls): &lt;br&gt; _convert_value(         self,         key: str,         v: Any,         config: INISerializerConfig,         save_settings: ModelSaveSettings,     ): &lt;br&gt; _to_section(         self, config: INISerializerConfig, save_settings: ModelSaveSettings     ): &lt;br&gt; _should_be_serialized(self, key: str, value: Any, save_settings: ModelSaveSettings): &lt;br&gt; _is_union(field_type: type): &lt;br&gt; _union_has_filemodel(field_type: type): &lt;br&gt; _is_list(field_type: type): &lt;br&gt; _value_is_not_none_or_type_is_filemodel(field_type: type, value: Any): &lt;/p&gt;" style="verticalAlign=top;align=left;overflow=fill;fontSize=14;fontFamily=Helvetica;html=1;rounded=0;shadow=0;comic=0;labelBackgroundColor=none;strokeWidth=1;" parent="1" vertex="1">
          <mxGeometry x="-1511" y="2664" width="398" height="613" as="geometry" />
        </mxCell>
        <mxCell id="NgWnnuIfLwq-9tEsxxi--39" value="&lt;span style=&quot;text-wrap: wrap;&quot;&gt;&lt;font style=&quot;font-size: 50px;&quot;&gt;models&lt;/font&gt;&lt;/span&gt;" style="text;html=1;align=center;verticalAlign=middle;resizable=0;points=[];autosize=1;strokeColor=none;fillColor=none;sketch=1;curveFitting=1;jiggle=2;" parent="1" vertex="1">
          <mxGeometry x="-1586" y="2492" width="179" height="72" as="geometry" />
        </mxCell>
        <mxCell id="NgWnnuIfLwq-9tEsxxi--43" style="edgeStyle=none;curved=1;rounded=0;sketch=1;hachureGap=4;jiggle=2;curveFitting=1;orthogonalLoop=1;jettySize=auto;html=1;fontFamily=Architects Daughter;fontSource=https%3A%2F%2Ffonts.googleapis.com%2Fcss%3Ffamily%3DArchitects%2BDaughter;fontSize=16;startSize=14;endArrow=open;endSize=14;sourcePerimeterSpacing=8;targetPerimeterSpacing=8;strokeWidth=10;" parent="1" source="NgWnnuIfLwq-9tEsxxi--42" target="NgWnnuIfLwq-9tEsxxi--40" edge="1">
          <mxGeometry relative="1" as="geometry" />
        </mxCell>
        <mxCell id="NgWnnuIfLwq-9tEsxxi--42" value="&lt;span style=&quot;font-size: 50px;&quot;&gt;ini&lt;/span&gt;" style="shape=parallelogram;perimeter=parallelogramPerimeter;whiteSpace=wrap;html=1;fixedSize=1;fontSize=50;sketch=1;curveFitting=1;jiggle=2;" parent="1" vertex="1">
          <mxGeometry x="-1958" y="3358" width="230" height="90" as="geometry" />
        </mxCell>
        <mxCell id="NgWnnuIfLwq-9tEsxxi--44" value="&lt;p style=&quot;margin:0px;margin-top:4px;text-align:center;&quot;&gt;&lt;b&gt;&lt;font color=&quot;#ff3399&quot; style=&quot;font-size: 20px;&quot;&gt;Meteo&lt;/font&gt;&lt;/b&gt;&lt;/p&gt;&lt;hr size=&quot;1&quot;&gt;&lt;p style=&quot;margin:0 0 0 4px;line-height:1.6;&quot;&gt; comments: &lt;br&gt; _disk_only_file_model_should_not_be_none: &lt;br&gt; _header: &lt;br&gt; quantity: &lt;br&gt; forcingfile: &lt;br&gt; forcingVariableName: &lt;br&gt; forcingfiletype: &lt;br&gt; targetmaskfile: &lt;br&gt; targetmaskinvert: &lt;br&gt; interpolationmethod: &lt;br&gt; operand: &lt;br&gt; extrapolationAllowed: &lt;br&gt; extrapolationSearchRadius: &lt;br&gt; averagingType: &lt;br&gt; averagingNumMin: &lt;br&gt; averagingPercentile: &lt;br&gt; forcingfiletype_validator: &lt;br&gt; interpolationmethod_validator: &lt;/p&gt;&lt;hr size=&quot;1&quot;&gt;&lt;p style=&quot;margin:0 0 0 4px;line-height:1.6;&quot;&gt; Meteo.Comments: &lt;/p&gt;&lt;hr size=&quot;1&quot;&gt;&lt;p style=&quot;margin:0 0 0 4px;line-height:1.6;&quot;&gt; _get_unknown_keyword_error_manager(cls): &lt;br&gt; is_intermediate_link(self): &lt;/p&gt;" style="verticalAlign=top;align=left;overflow=fill;fontSize=14;fontFamily=Helvetica;html=1;rounded=0;shadow=0;comic=0;labelBackgroundColor=none;strokeWidth=1;" parent="1" vertex="1">
          <mxGeometry x="906" y="353" width="311" height="521" as="geometry" />
        </mxCell>
        <mxCell id="RksUiqkM4I6V5LQpa1TW-1" value="&lt;p style=&quot;margin:0px;margin-top:4px;text-align:center;&quot;&gt;&lt;b&gt;&lt;font color=&quot;#ff3399&quot; style=&quot;font-size: 20px;&quot;&gt;Boundary&lt;/font&gt;&lt;/b&gt;&lt;/p&gt;&lt;hr size=&quot;1&quot;&gt;&lt;p style=&quot;margin:0 0 0 4px;line-height:1.6;&quot;&gt; _disk_only_file_model_should_not_be_none: &lt;br&gt; _header: &lt;br&gt; quantity: &lt;br&gt; nodeid: &lt;br&gt; locationfile: &lt;br&gt; forcingfile: &lt;br&gt; bndwidth1d: &lt;br&gt; bndbldepth: &lt;/p&gt;&lt;hr size=&quot;1&quot;&gt;&lt;p style=&quot;margin:0 0 0 4px;line-height:1.6;&quot;&gt; is_intermediate_link(self): &lt;br&gt; _is_valid_locationfile_data(         cls, elem: Union[None, str, Path, DiskOnlyFileModel]     ): &lt;br&gt; check_nodeid_or_locationfile_present(cls, values: Dict): &lt;br&gt; _get_identifier(self, data: dict): &lt;br&gt; forcing(self): &lt;/p&gt;" style="verticalAlign=top;align=left;overflow=fill;fontSize=14;fontFamily=Helvetica;html=1;rounded=0;shadow=0;comic=0;labelBackgroundColor=none;strokeWidth=1;" parent="1" vertex="1">
          <mxGeometry x="1374" y="362" width="373" height="360" as="geometry" />
        </mxCell>
        <mxCell id="RksUiqkM4I6V5LQpa1TW-3" value="&lt;p style=&quot;margin:0px;margin-top:4px;text-align:center;&quot;&gt;&lt;b&gt;&lt;font color=&quot;#ff3399&quot; style=&quot;font-size: 20px;&quot;&gt;InitialConditions&lt;/font&gt;&lt;/b&gt;&lt;/p&gt;&lt;hr size=&quot;1&quot;&gt;&lt;p style=&quot;margin:0 0 0 4px;line-height:1.6;&quot;&gt; _disk_only_file_model_should_not_be_none: &lt;br&gt; _header: &lt;br&gt; quantity: &lt;br&gt; dataFile: &lt;br&gt; dataFileType: &lt;br&gt; interpolationmethod: &lt;br&gt; operand: &lt;br&gt; extrapolationAllowed: &lt;br&gt; extrapolationSearchRadius: &lt;br&gt; averagingType: &lt;br&gt; averagingNumMin: &lt;br&gt; averagingPercentile: &lt;br&gt; forcingfiletype_validator: &lt;br&gt; interpolationmethod_validator: &lt;/p&gt;&lt;hr size=&quot;1&quot;&gt;&lt;p style=&quot;margin:0 0 0 4px;line-height:1.6;&quot;&gt; is_intermediate_link(self): &lt;/p&gt;" style="verticalAlign=top;align=left;overflow=fill;fontSize=14;fontFamily=Helvetica;html=1;rounded=0;shadow=0;comic=0;labelBackgroundColor=none;strokeWidth=1;" parent="1" vertex="1">
          <mxGeometry x="468" y="353" width="345" height="406" as="geometry" />
        </mxCell>
        <mxCell id="RksUiqkM4I6V5LQpa1TW-4" value="&lt;p style=&quot;margin:0px;margin-top:4px;text-align:center;&quot;&gt;&lt;b&gt;&lt;font color=&quot;#ff3399&quot; style=&quot;font-size: 20px;&quot;&gt;InitialCondFileType&lt;/font&gt;&lt;/b&gt;&lt;/p&gt;&lt;hr size=&quot;1&quot;&gt;&lt;p style=&quot;margin:0 0 0 4px;line-height:1.6;&quot;&gt; arcinfo: &lt;br&gt; geotiff: &lt;br&gt; sample: &lt;br&gt; d1fiels: &lt;br&gt; polygon: &lt;br&gt; allowedvaluestext: &lt;/p&gt;" style="verticalAlign=top;align=left;overflow=fill;fontSize=14;fontFamily=Helvetica;html=1;rounded=0;shadow=0;comic=0;labelBackgroundColor=none;strokeWidth=1;" parent="1" vertex="1">
          <mxGeometry x="455" y="804" width="363" height="174" as="geometry" />
        </mxCell>
        <mxCell id="RksUiqkM4I6V5LQpa1TW-5" value="&lt;p style=&quot;margin: 4px 0px 0px; text-align: center; font-size: 20px;&quot;&gt;&lt;b style=&quot;&quot;&gt;&lt;font style=&quot;font-size: 20px;&quot; color=&quot;#ff3399&quot;&gt;InitialCondInterpolationMethod&lt;/font&gt;&lt;/b&gt;&lt;/p&gt;&lt;hr style=&quot;font-size: 20px;&quot; size=&quot;1&quot;&gt;&lt;p style=&quot;margin:0 0 0 4px;line-height:1.6;&quot;&gt; constant: &lt;br&gt; triangulation: &lt;br&gt; averaging: &lt;br&gt; allowedvaluestext: &lt;/p&gt;" style="verticalAlign=top;align=left;overflow=fill;fontSize=14;fontFamily=Helvetica;html=1;rounded=0;shadow=0;comic=0;labelBackgroundColor=none;strokeWidth=1;" parent="1" vertex="1">
          <mxGeometry x="450" y="1082" width="368" height="138" as="geometry" />
        </mxCell>
        <mxCell id="RksUiqkM4I6V5LQpa1TW-6" value="&lt;p style=&quot;margin:0px;margin-top:4px;text-align:center;&quot;&gt;&lt;b&gt;&lt;font style=&quot;font-size: 20px;&quot; color=&quot;#ff3399&quot;&gt;MeteoInterpolationMethod&lt;/font&gt;&lt;/b&gt;&lt;/p&gt;&lt;hr size=&quot;1&quot;&gt;&lt;p style=&quot;margin:0 0 0 4px;line-height:1.6;&quot;&gt; nearestnb: &lt;br&gt; linearSpaceTime: &lt;br&gt; allowedvaluestext: &lt;/p&gt;" style="verticalAlign=top;align=left;overflow=fill;fontSize=14;fontFamily=Helvetica;html=1;rounded=0;shadow=0;comic=0;labelBackgroundColor=none;strokeWidth=1;" parent="1" vertex="1">
          <mxGeometry x="910" y="1161" width="321" height="113" as="geometry" />
        </mxCell>
        <mxCell id="RksUiqkM4I6V5LQpa1TW-7" value="&lt;p style=&quot;margin:0px;margin-top:4px;text-align:center;&quot;&gt;&lt;b&gt;&lt;font color=&quot;#ff3399&quot; style=&quot;font-size: 20px;&quot;&gt;MeteoForcingFileType&lt;/font&gt;&lt;/b&gt;&lt;/p&gt;&lt;hr size=&quot;1&quot;&gt;&lt;p style=&quot;margin:0 0 0 4px;line-height:1.6;&quot;&gt; bcascii: &lt;br&gt; uniform: &lt;br&gt; unimagdir: &lt;br&gt; meteogridequi: &lt;br&gt; spiderweb: &lt;br&gt; meteogridcurvi: &lt;br&gt; netcdf: &lt;br&gt; allowedvaluestext: &lt;/p&gt;" style="verticalAlign=top;align=left;overflow=fill;fontSize=14;fontFamily=Helvetica;html=1;rounded=0;shadow=0;comic=0;labelBackgroundColor=none;strokeWidth=1;" parent="1" vertex="1">
          <mxGeometry x="876" y="905" width="382" height="220" as="geometry" />
        </mxCell>
        <mxCell id="RksUiqkM4I6V5LQpa1TW-8" value="&lt;p style=&quot;margin:0px;margin-top:4px;text-align:center;&quot;&gt;&lt;b&gt;&lt;font color=&quot;#ff3399&quot; style=&quot;font-size: 20px;&quot;&gt;Lateral&lt;/font&gt;&lt;/b&gt;&lt;/p&gt;&lt;hr size=&quot;1&quot;&gt;&lt;p style=&quot;margin:0 0 0 4px;line-height:1.6;&quot;&gt; _header: &lt;br&gt; id: &lt;br&gt; name: &lt;br&gt; locationtype: &lt;br&gt; nodeid: &lt;br&gt; branchid: &lt;br&gt; chainage: &lt;br&gt; numcoordinates: &lt;br&gt; xcoordinates: &lt;br&gt; ycoordinates: &lt;br&gt; discharge: &lt;br&gt; _split_to_list: &lt;/p&gt;&lt;hr size=&quot;1&quot;&gt;&lt;p style=&quot;margin:0 0 0 4px;line-height:1.6;&quot;&gt; is_intermediate_link(self): &lt;br&gt; validate_that_location_specification_is_correct(cls, values: Dict): &lt;br&gt; _get_identifier(self, data: dict): &lt;br&gt; validate_location_type(cls, v: str): &lt;/p&gt;" style="verticalAlign=top;align=left;overflow=fill;fontSize=14;fontFamily=Helvetica;html=1;rounded=0;shadow=0;comic=0;labelBackgroundColor=none;strokeWidth=1;" parent="1" vertex="1">
          <mxGeometry x="436" y="1365" width="388" height="417" as="geometry" />
        </mxCell>
        <mxCell id="znAOulT6fDIEL4zfJh_K-1" value="&lt;p style=&quot;margin:0px;margin-top:4px;text-align:center;&quot;&gt;&lt;b&gt;core.basemodel.BaseModel&lt;/b&gt;&lt;/p&gt;&lt;hr size=&quot;1&quot;/&gt;&lt;p style=&quot;margin:0 0 0 4px;line-height:1.6;&quot;&gt; BaseModel.Config: &lt;/p&gt;&lt;hr size=&quot;1&quot;/&gt;&lt;p style=&quot;margin:0 0 0 4px;line-height:1.6;&quot;&gt; __init__(self, **data: Any): &lt;br/&gt; is_file_link(self): &lt;br/&gt; is_intermediate_link(self): &lt;br/&gt; show_tree(self, indent=0): &lt;br/&gt; _apply_recurse(self, f, *args, **kwargs): &lt;br/&gt; _get_identifier(self, data: dict): &lt;/p&gt;" style="verticalAlign=top;align=left;overflow=fill;fontSize=14;fontFamily=Helvetica;html=1;rounded=0;shadow=0;comic=0;labelBackgroundColor=none;strokeWidth=1;" vertex="1" parent="1">
          <mxGeometry x="889" y="4171" width="279" height="198" as="geometry" />
        </mxCell>
        <mxCell id="znAOulT6fDIEL4zfJh_K-2" value="&lt;p style=&quot;margin:0px;margin-top:4px;text-align:center;&quot;&gt;&lt;b&gt;core.basemodel.FileModel&lt;/b&gt;&lt;/p&gt;&lt;hr size=&quot;1&quot;/&gt;&lt;p style=&quot;margin:0 0 0 4px;line-height:1.6;&quot;&gt; _has_been_loaded_from_cache: &lt;br/&gt; filepath: &lt;br/&gt; context: &lt;br/&gt; _absolute_anchor_path: &lt;br/&gt; __slots__: &lt;br/&gt; _file_models_cache: &lt;br/&gt; filepath: &lt;br/&gt; _absolute_anchor_path: &lt;/p&gt;&lt;hr size=&quot;1&quot;/&gt;&lt;p style=&quot;margin:0 0 0 4px;line-height:1.6;&quot;&gt; __new__(cls, filepath: Optional[PathOrStr] = None, *args, **kwargs): &lt;br/&gt; __init__(         self,         filepath: Optional[PathOrStr] = None,         resolve_casing: bool = False,         recurse: bool = True,         path_style: Optional[str] = None,         *args,         **kwargs,     ): &lt;br/&gt; _should_load_model(cls, context: FileLoadContext): &lt;br/&gt; _post_init_load(self): &lt;br/&gt; _resolved_filepath(self): &lt;br/&gt; save_location(self): &lt;br/&gt; is_file_link(self): &lt;br/&gt; _get_updated_file_path(self, file_path: Path, loading_path: Path): &lt;br/&gt; validate(cls: Type[&amp;quot;FileModel&amp;quot;], value: Any): &lt;br/&gt; save(         self,         filepath: Optional[Path] = None,         recurse: bool = False,         path_style: Optional[str] = None,         exclude_unset: bool = False,     ): &lt;br/&gt; _save_instance(self, save_settings: ModelSaveSettings): &lt;br/&gt; _save_tree(         self, context: FileLoadContext, save_settings: ModelSaveSettings     ): &lt;br/&gt; synchronize_filepaths(self): &lt;br/&gt; _relative_mode(self): &lt;br/&gt; _get_relative_mode_from_data(cls, data: Dict[str, Any]): &lt;br/&gt; _generate_name(cls): &lt;br/&gt; _save(self, save_settings: ModelSaveSettings): &lt;br/&gt; _load(self, filepath: Path): &lt;br/&gt; __str__(self): &lt;br/&gt; _change_to_path(filepath): &lt;br/&gt; _conform_filepath_to_pathlib(cls, value): &lt;/p&gt;" style="verticalAlign=top;align=left;overflow=fill;fontSize=14;fontFamily=Helvetica;html=1;rounded=0;shadow=0;comic=0;labelBackgroundColor=none;strokeWidth=1;" vertex="1" parent="1">
          <mxGeometry x="826" y="3447" width="405" height="704" as="geometry" />
        </mxCell>
        <mxCell id="znAOulT6fDIEL4zfJh_K-3" value="&lt;p style=&quot;margin:0px;margin-top:4px;text-align:center;&quot;&gt;&lt;b&gt;core.basemodel.ParsableFileModel&lt;/b&gt;&lt;/p&gt;&lt;hr size=&quot;1&quot;/&gt;&lt;p style=&quot;margin:0 0 0 4px;line-height:1.6;&quot;&gt; serializer_config: &lt;/p&gt;&lt;hr size=&quot;1&quot;/&gt;&lt;p style=&quot;margin:0 0 0 4px;line-height:1.6;&quot;&gt; _load(self, filepath: Path): &lt;br/&gt; _save(self, save_settings: ModelSaveSettings): &lt;br/&gt; _serialize(self, data: dict, save_settings: ModelSaveSettings): &lt;br/&gt; dict(self, *args, **kwargs): &lt;br/&gt; _exclude_fields(cls): &lt;br/&gt; _parse(cls, path: Path): &lt;br/&gt; _generate_name(cls): &lt;br/&gt; _filename(cls): &lt;br/&gt; _ext(cls): &lt;br/&gt; _get_serializer(         cls,     ): &lt;br/&gt; _get_parser(cls): &lt;br/&gt; _get_identifier(self, data: dict): &lt;/p&gt;" style="verticalAlign=top;align=left;overflow=fill;fontSize=14;fontFamily=Helvetica;html=1;rounded=0;shadow=0;comic=0;labelBackgroundColor=none;strokeWidth=1;" vertex="1" parent="1">
          <mxGeometry x="831" y="3091" width="396" height="336" as="geometry" />
        </mxCell>
        <mxCell id="znAOulT6fDIEL4zfJh_K-4" value="&lt;p style=&quot;margin:0px;margin-top:4px;text-align:center;&quot;&gt;&lt;b&gt;core.dflowfm.ini.models.INIBasedModel&lt;/b&gt;&lt;/p&gt;&lt;hr size=&quot;1&quot;/&gt;&lt;p style=&quot;margin:0 0 0 4px;line-height:1.6;&quot;&gt; _header: &lt;br/&gt; _file_path_style_converter: &lt;br/&gt; _scientific_notation_regex: &lt;br/&gt; comments: &lt;/p&gt;&lt;hr size=&quot;1&quot;/&gt;&lt;p style=&quot;margin:0 0 0 4px;line-height:1.6;&quot;&gt; INIBasedModel.Config: &lt;br/&gt; INIBasedModel.Comments: &lt;/p&gt;&lt;hr size=&quot;1&quot;/&gt;&lt;p style=&quot;margin:0 0 0 4px;line-height:1.6;&quot;&gt; _get_unknown_keyword_error_manager(cls): &lt;br/&gt; _supports_comments(cls): &lt;br/&gt; _duplicate_keys_as_list(cls): &lt;br/&gt; get_list_delimiter(cls): &lt;br/&gt; get_list_field_delimiter(cls, field_key: str): &lt;br/&gt; _validate_unknown_keywords(cls, values): &lt;br/&gt; _skip_nones_and_set_header(cls, values): &lt;br/&gt; comments_matches_has_comments(cls, v): &lt;br/&gt; replace_fortran_scientific_notation_for_floats(cls, value, field): &lt;br/&gt; _replace_fortran_scientific_notation(cls, value): &lt;br/&gt; validate(cls: Type[&amp;quot;INIBasedModel&amp;quot;], value: Any): &lt;br/&gt; _exclude_fields(cls): &lt;br/&gt; _convert_value(         self,         key: str,         v: Any,         config: INISerializerConfig,         save_settings: ModelSaveSettings,     ): &lt;br/&gt; _to_section(         self, config: INISerializerConfig, save_settings: ModelSaveSettings     ): &lt;br/&gt; _should_be_serialized(self, key: str, value: Any, save_settings: ModelSaveSettings): &lt;br/&gt; _is_union(field_type: type): &lt;br/&gt; _union_has_filemodel(field_type: type): &lt;br/&gt; _is_list(field_type: type): &lt;br/&gt; _value_is_not_none_or_type_is_filemodel(field_type: type, value: Any): &lt;/p&gt;" style="verticalAlign=top;align=left;overflow=fill;fontSize=14;fontFamily=Helvetica;html=1;rounded=0;shadow=0;comic=0;labelBackgroundColor=none;strokeWidth=1;" vertex="1" parent="1">
          <mxGeometry x="181" y="3227" width="398" height="613" as="geometry" />
        </mxCell>
        <mxCell id="znAOulT6fDIEL4zfJh_K-5" value="&lt;p style=&quot;margin:0px;margin-top:4px;text-align:center;&quot;&gt;&lt;b&gt;core.dflowfm.ini.models.INIGeneral&lt;/b&gt;&lt;/p&gt;&lt;hr size=&quot;1&quot;/&gt;&lt;p style=&quot;margin:0 0 0 4px;line-height:1.6;&quot;&gt; _header: &lt;br/&gt; fileversion: &lt;br/&gt; filetype: &lt;/p&gt;&lt;hr size=&quot;1&quot;/&gt;&lt;p style=&quot;margin:0 0 0 4px;line-height:1.6;&quot;&gt; _supports_comments(cls): &lt;/p&gt;" style="verticalAlign=top;align=left;overflow=fill;fontSize=14;fontFamily=Helvetica;html=1;rounded=0;shadow=0;comic=0;labelBackgroundColor=none;strokeWidth=1;" vertex="1" parent="1">
          <mxGeometry x="70" y="3870" width="249" height="139" as="geometry" />
        </mxCell>
        <mxCell id="znAOulT6fDIEL4zfJh_K-6" value="&lt;p style=&quot;margin:0px;margin-top:4px;text-align:center;&quot;&gt;&lt;b&gt;core.dflowfm.ini.models.INIModel&lt;/b&gt;&lt;/p&gt;&lt;hr size=&quot;1&quot;/&gt;&lt;p style=&quot;margin:0 0 0 4px;line-height:1.6;&quot;&gt; serializer_config: &lt;br/&gt; general: &lt;/p&gt;&lt;hr size=&quot;1&quot;/&gt;&lt;p style=&quot;margin:0 0 0 4px;line-height:1.6;&quot;&gt; _ext(cls): &lt;br/&gt; _filename(cls): &lt;br/&gt; _get_serializer(cls): &lt;br/&gt; _get_parser(cls): &lt;br/&gt; _to_document(self, save_settings: ModelSaveSettings): &lt;br/&gt; _serialize(self, _: dict, save_settings: ModelSaveSettings): &lt;/p&gt;" style="verticalAlign=top;align=left;overflow=fill;fontSize=14;fontFamily=Helvetica;html=1;rounded=0;shadow=0;comic=0;labelBackgroundColor=none;strokeWidth=1;" vertex="1" parent="1">
          <mxGeometry x="835" y="2850" width="387" height="221" as="geometry" />
        </mxCell>
        <mxCell id="znAOulT6fDIEL4zfJh_K-7" value="&lt;p style=&quot;margin:0px;margin-top:4px;text-align:center;&quot;&gt;&lt;b&gt;core.dflowfm.inifield.models.AbstractSpatialField&lt;/b&gt;&lt;/p&gt;&lt;hr size=&quot;1&quot;/&gt;&lt;p style=&quot;margin:0 0 0 4px;line-height:1.6;&quot;&gt; comments: &lt;br/&gt; quantity: &lt;br/&gt; datafile: &lt;br/&gt; datafiletype: &lt;br/&gt; interpolationmethod: &lt;br/&gt; operand: &lt;br/&gt; averagingtype: &lt;br/&gt; averagingrelsize: &lt;br/&gt; averagingnummin: &lt;br/&gt; averagingpercentile: &lt;br/&gt; extrapolationmethod: &lt;br/&gt; locationtype: &lt;br/&gt; value: &lt;br/&gt; datafiletype_validator: &lt;br/&gt; interpolationmethod_validator: &lt;br/&gt; operand_validator: &lt;br/&gt; averagingtype_validator: &lt;br/&gt; locationtype_validator: &lt;/p&gt;&lt;hr size=&quot;1&quot;/&gt;&lt;p style=&quot;margin:0 0 0 4px;line-height:1.6;&quot;&gt; AbstractSpatialField.Comments: &lt;/p&gt;&lt;hr size=&quot;1&quot;/&gt;&lt;p style=&quot;margin:0 0 0 4px;line-height:1.6;&quot;&gt; validate_that_value_is_present_for_polygons(cls, values: Dict): &lt;br/&gt; _validate_value_and_filetype(cls, v, values: dict): &lt;/p&gt;" style="verticalAlign=top;align=left;overflow=fill;fontSize=14;fontFamily=Helvetica;html=1;rounded=0;shadow=0;comic=0;labelBackgroundColor=none;strokeWidth=1;" vertex="1" parent="1">
          <mxGeometry x="366" y="3870" width="401" height="521" as="geometry" />
        </mxCell>
        <mxCell id="znAOulT6fDIEL4zfJh_K-8" value="&lt;p style=&quot;margin:0px;margin-top:4px;text-align:center;&quot;&gt;&lt;b&gt;core.dflowfm.inifield.models.AveragingType&lt;/b&gt;&lt;/p&gt;&lt;hr size=&quot;1&quot;/&gt;&lt;p style=&quot;margin:0 0 0 4px;line-height:1.6;&quot;&gt; mean: &lt;br/&gt; nearestnb: &lt;br/&gt; max: &lt;br/&gt; min: &lt;br/&gt; invdist: &lt;br/&gt; minabs: &lt;br/&gt; allowedvaluestext: &lt;/p&gt;" style="verticalAlign=top;align=left;overflow=fill;fontSize=14;fontFamily=Helvetica;html=1;rounded=0;shadow=0;comic=0;labelBackgroundColor=none;strokeWidth=1;" vertex="1" parent="1">
          <mxGeometry x="468" y="2963" width="305" height="197" as="geometry" />
        </mxCell>
        <mxCell id="znAOulT6fDIEL4zfJh_K-9" value="&lt;p style=&quot;margin:0px;margin-top:4px;text-align:center;&quot;&gt;&lt;b&gt;core.dflowfm.inifield.models.DataFileType&lt;/b&gt;&lt;/p&gt;&lt;hr size=&quot;1&quot;/&gt;&lt;p style=&quot;margin:0 0 0 4px;line-height:1.6;&quot;&gt; arcinfo: &lt;br/&gt; geotiff: &lt;br/&gt; sample: &lt;br/&gt; onedfield: &lt;br/&gt; polygon: &lt;br/&gt; allowedvaluestext: &lt;/p&gt;" style="verticalAlign=top;align=left;overflow=fill;fontSize=14;fontFamily=Helvetica;html=1;rounded=0;shadow=0;comic=0;labelBackgroundColor=none;strokeWidth=1;" vertex="1" parent="1">
          <mxGeometry x="468" y="2769" width="293" height="174" as="geometry" />
        </mxCell>
        <mxCell id="znAOulT6fDIEL4zfJh_K-10" value="&lt;p style=&quot;margin:0px;margin-top:4px;text-align:center;&quot;&gt;&lt;b&gt;core.dflowfm.inifield.models.IniFieldGeneral&lt;/b&gt;&lt;/p&gt;&lt;hr size=&quot;1&quot;/&gt;&lt;p style=&quot;margin:0 0 0 4px;line-height:1.6;&quot;&gt; comments: &lt;br/&gt; _header: &lt;br/&gt; fileversion: &lt;br/&gt; filetype: &lt;/p&gt;&lt;hr size=&quot;1&quot;/&gt;&lt;p style=&quot;margin:0 0 0 4px;line-height:1.6;&quot;&gt; IniFieldGeneral.Comments: &lt;/p&gt;" style="verticalAlign=top;align=left;overflow=fill;fontSize=14;fontFamily=Helvetica;html=1;rounded=0;shadow=0;comic=0;labelBackgroundColor=none;strokeWidth=1;" vertex="1" parent="1">
          <mxGeometry x="42" y="4019" width="304" height="152" as="geometry" />
        </mxCell>
        <mxCell id="znAOulT6fDIEL4zfJh_K-11" value="&lt;p style=&quot;margin:0px;margin-top:4px;text-align:center;&quot;&gt;&lt;b&gt;core.dflowfm.inifield.models.IniFieldModel&lt;/b&gt;&lt;/p&gt;&lt;hr size=&quot;1&quot;/&gt;&lt;p style=&quot;margin:0 0 0 4px;line-height:1.6;&quot;&gt; general: &lt;br/&gt; initial: &lt;br/&gt; parameter: &lt;br/&gt; _split_to_list: &lt;/p&gt;&lt;hr size=&quot;1&quot;/&gt;&lt;p style=&quot;margin:0 0 0 4px;line-height:1.6;&quot;&gt; _ext(cls): &lt;br/&gt; _filename(cls): &lt;/p&gt;" style="verticalAlign=top;align=left;overflow=fill;fontSize=14;fontFamily=Helvetica;html=1;rounded=0;shadow=0;comic=0;labelBackgroundColor=none;strokeWidth=1;" vertex="1" parent="1">
          <mxGeometry x="882" y="2655" width="294" height="175" as="geometry" />
        </mxCell>
        <mxCell id="znAOulT6fDIEL4zfJh_K-12" value="&lt;p style=&quot;margin:0px;margin-top:4px;text-align:center;&quot;&gt;&lt;b&gt;core.dflowfm.inifield.models.InitialField&lt;/b&gt;&lt;/p&gt;&lt;hr size=&quot;1&quot;/&gt;&lt;p style=&quot;margin:0 0 0 4px;line-height:1.6;&quot;&gt; _header: &lt;/p&gt;" style="verticalAlign=top;align=left;overflow=fill;fontSize=14;fontFamily=Helvetica;html=1;rounded=0;shadow=0;comic=0;labelBackgroundColor=none;strokeWidth=1;" vertex="1" parent="1">
          <mxGeometry x="584" y="4422" width="275" height="64" as="geometry" />
        </mxCell>
        <mxCell id="znAOulT6fDIEL4zfJh_K-13" value="&lt;p style=&quot;margin:0px;margin-top:4px;text-align:center;&quot;&gt;&lt;b&gt;core.dflowfm.inifield.models.InterpolationMethod&lt;/b&gt;&lt;/p&gt;&lt;hr size=&quot;1&quot;/&gt;&lt;p style=&quot;margin:0 0 0 4px;line-height:1.6;&quot;&gt; constant: &lt;br/&gt; triangulation: &lt;br/&gt; averaging: &lt;br/&gt; allowedvaluestext: &lt;/p&gt;" style="verticalAlign=top;align=left;overflow=fill;fontSize=14;fontFamily=Helvetica;html=1;rounded=0;shadow=0;comic=0;labelBackgroundColor=none;strokeWidth=1;" vertex="1" parent="1">
          <mxGeometry x="468" y="2621" width="338" height="138" as="geometry" />
        </mxCell>
        <mxCell id="znAOulT6fDIEL4zfJh_K-14" value="&lt;p style=&quot;margin:0px;margin-top:4px;text-align:center;&quot;&gt;&lt;b&gt;core.dflowfm.inifield.models.ParameterField&lt;/b&gt;&lt;/p&gt;&lt;hr size=&quot;1&quot;/&gt;&lt;p style=&quot;margin:0 0 0 4px;line-height:1.6;&quot;&gt; _header: &lt;/p&gt;" style="verticalAlign=top;align=left;overflow=fill;fontSize=14;fontFamily=Helvetica;html=1;rounded=0;shadow=0;comic=0;labelBackgroundColor=none;strokeWidth=1;" vertex="1" parent="1">
          <mxGeometry x="260" y="4422" width="304" height="64" as="geometry" />
        </mxCell>
        <mxCell id="znAOulT6fDIEL4zfJh_K-15" value="&lt;p style=&quot;margin:0px;margin-top:4px;text-align:center;&quot;&gt;&lt;b&gt;strenum.StrEnum&lt;/b&gt;&lt;/p&gt;&lt;hr size=&quot;1&quot;/&gt;&lt;p style=&quot;margin:0 0 0 4px;line-height:1.6;&quot;&gt; __new__(cls, value: Union[str, enum.auto], *args: Sequence[Any], **kwargs: Mapping[Any, Any]): &lt;br/&gt; __str__(self): &lt;br/&gt; _generate_next_value_(name: str, *_): &lt;/p&gt;" style="verticalAlign=top;align=left;overflow=fill;fontSize=14;fontFamily=Helvetica;html=1;rounded=0;shadow=0;comic=0;labelBackgroundColor=none;strokeWidth=1;" vertex="1" parent="1">
          <mxGeometry x="244" y="2496" width="407" height="113" as="geometry" />
        </mxCell>
        <mxCell id="znAOulT6fDIEL4zfJh_K-16" value="" style="html=1;rounded=1;edgeStyle=orthogonalEdgeStyle;dashed=0;startArrow=block;startSize=12;endArrow=none;strokeColor=#595959;exitX=0.500;exitY=1.000;exitDx=0;exitDy=0;entryX=0.500;entryY=0.000;entryDx=0;entryDy=0;" edge="1" parent="1" source="znAOulT6fDIEL4zfJh_K-2" target="znAOulT6fDIEL4zfJh_K-1">
          <mxGeometry width="50" height="50" relative="1" as="geometry">
            <Array as="points" />
          </mxGeometry>
        </mxCell>
        <mxCell id="znAOulT6fDIEL4zfJh_K-17" value="" style="html=1;rounded=1;edgeStyle=orthogonalEdgeStyle;dashed=0;startArrow=block;startSize=12;endArrow=none;strokeColor=#595959;exitX=0.500;exitY=1.000;exitDx=0;exitDy=0;entryX=0.500;entryY=0.000;entryDx=0;entryDy=0;" edge="1" parent="1" source="znAOulT6fDIEL4zfJh_K-3" target="znAOulT6fDIEL4zfJh_K-2">
          <mxGeometry width="50" height="50" relative="1" as="geometry">
            <Array as="points" />
          </mxGeometry>
        </mxCell>
        <mxCell id="znAOulT6fDIEL4zfJh_K-18" value="" style="html=1;rounded=1;edgeStyle=orthogonalEdgeStyle;dashed=0;startArrow=block;startSize=12;endArrow=none;strokeColor=#595959;exitX=1.000;exitY=0.500;exitDx=0;exitDy=0;entryX=0.000;entryY=0.500;entryDx=0;entryDy=0;" edge="1" parent="1" source="znAOulT6fDIEL4zfJh_K-4" target="znAOulT6fDIEL4zfJh_K-1">
          <mxGeometry width="50" height="50" relative="1" as="geometry">
            <Array as="points">
              <mxPoint x="775" y="3533" />
              <mxPoint x="775" y="4270" />
            </Array>
          </mxGeometry>
        </mxCell>
        <mxCell id="znAOulT6fDIEL4zfJh_K-19" value="" style="html=1;rounded=1;edgeStyle=orthogonalEdgeStyle;dashed=0;startArrow=block;startSize=12;endArrow=none;strokeColor=#595959;exitX=0.500;exitY=0.000;exitDx=0;exitDy=0;entryX=0.032;entryY=1.000;entryDx=0;entryDy=0;" edge="1" parent="1" source="znAOulT6fDIEL4zfJh_K-5" target="znAOulT6fDIEL4zfJh_K-4">
          <mxGeometry width="50" height="50" relative="1" as="geometry">
            <Array as="points" />
          </mxGeometry>
        </mxCell>
        <mxCell id="znAOulT6fDIEL4zfJh_K-20" value="" style="html=1;rounded=1;edgeStyle=orthogonalEdgeStyle;dashed=0;startArrow=block;startSize=12;endArrow=none;strokeColor=#595959;exitX=0.500;exitY=1.000;exitDx=0;exitDy=0;entryX=0.500;entryY=0.000;entryDx=0;entryDy=0;" edge="1" parent="1" source="znAOulT6fDIEL4zfJh_K-6" target="znAOulT6fDIEL4zfJh_K-3">
          <mxGeometry width="50" height="50" relative="1" as="geometry">
            <Array as="points" />
          </mxGeometry>
        </mxCell>
        <mxCell id="znAOulT6fDIEL4zfJh_K-21" value="" style="html=1;rounded=1;edgeStyle=orthogonalEdgeStyle;dashed=0;startArrow=block;startSize=12;endArrow=none;strokeColor=#595959;exitX=0.036;exitY=0.000;exitDx=0;exitDy=0;entryX=0.500;entryY=1.000;entryDx=0;entryDy=0;" edge="1" parent="1" source="znAOulT6fDIEL4zfJh_K-7" target="znAOulT6fDIEL4zfJh_K-4">
          <mxGeometry width="50" height="50" relative="1" as="geometry">
            <Array as="points" />
          </mxGeometry>
        </mxCell>
        <mxCell id="znAOulT6fDIEL4zfJh_K-22" value="" style="html=1;rounded=1;edgeStyle=orthogonalEdgeStyle;dashed=0;startArrow=block;startSize=12;endArrow=none;strokeColor=#595959;exitX=0.000;exitY=0.500;exitDx=0;exitDy=0;entryX=0.250;entryY=1.000;entryDx=0;entryDy=0;" edge="1" parent="1" source="znAOulT6fDIEL4zfJh_K-8" target="znAOulT6fDIEL4zfJh_K-15">
          <mxGeometry width="50" height="50" relative="1" as="geometry">
            <Array as="points">
              <mxPoint x="346" y="3062" />
            </Array>
          </mxGeometry>
        </mxCell>
        <mxCell id="znAOulT6fDIEL4zfJh_K-23" value="" style="html=1;rounded=1;edgeStyle=orthogonalEdgeStyle;dashed=0;startArrow=block;startSize=12;endArrow=none;strokeColor=#E1D5E7;exitX=0.000;exitY=0.500;exitDx=0;exitDy=0;entryX=0.275;entryY=1.000;entryDx=0;entryDy=0;strokeWidth=5;" edge="1" parent="1" source="znAOulT6fDIEL4zfJh_K-9" target="znAOulT6fDIEL4zfJh_K-15">
          <mxGeometry width="50" height="50" relative="1" as="geometry">
            <Array as="points">
              <mxPoint x="356" y="2856" />
            </Array>
          </mxGeometry>
        </mxCell>
        <mxCell id="znAOulT6fDIEL4zfJh_K-24" value="" style="html=1;rounded=1;edgeStyle=orthogonalEdgeStyle;dashed=0;startArrow=block;startSize=12;endArrow=none;strokeColor=#595959;exitX=0.500;exitY=0.000;exitDx=0;exitDy=0;entryX=0.500;entryY=1.000;entryDx=0;entryDy=0;" edge="1" parent="1" source="znAOulT6fDIEL4zfJh_K-10" target="znAOulT6fDIEL4zfJh_K-5">
          <mxGeometry width="50" height="50" relative="1" as="geometry">
            <Array as="points" />
          </mxGeometry>
        </mxCell>
        <mxCell id="znAOulT6fDIEL4zfJh_K-25" value="" style="html=1;rounded=1;edgeStyle=orthogonalEdgeStyle;dashed=0;startArrow=block;startSize=12;endArrow=none;strokeColor=#595959;exitX=0.500;exitY=1.000;exitDx=0;exitDy=0;entryX=0.500;entryY=0.000;entryDx=0;entryDy=0;" edge="1" parent="1" source="znAOulT6fDIEL4zfJh_K-11" target="znAOulT6fDIEL4zfJh_K-6">
          <mxGeometry width="50" height="50" relative="1" as="geometry">
            <Array as="points" />
          </mxGeometry>
        </mxCell>
        <mxCell id="znAOulT6fDIEL4zfJh_K-26" value="" style="html=1;rounded=1;edgeStyle=orthogonalEdgeStyle;dashed=0;startArrow=block;startSize=12;endArrow=none;strokeColor=#595959;exitX=0.500;exitY=0.001;exitDx=0;exitDy=0;entryX=0.886;entryY=1.000;entryDx=0;entryDy=0;" edge="1" parent="1" source="znAOulT6fDIEL4zfJh_K-12" target="znAOulT6fDIEL4zfJh_K-7">
          <mxGeometry width="50" height="50" relative="1" as="geometry">
            <Array as="points" />
          </mxGeometry>
        </mxCell>
        <mxCell id="znAOulT6fDIEL4zfJh_K-27" value="" style="html=1;rounded=1;edgeStyle=orthogonalEdgeStyle;dashed=0;startArrow=block;startSize=12;endArrow=none;strokeColor=#E1D5E7;exitX=0.000;exitY=0.500;exitDx=0;exitDy=0;entryX=0.299;entryY=1.000;entryDx=0;entryDy=0;strokeWidth=5;" edge="1" parent="1" source="znAOulT6fDIEL4zfJh_K-13" target="znAOulT6fDIEL4zfJh_K-15">
          <mxGeometry width="50" height="50" relative="1" as="geometry">
            <Array as="points">
              <mxPoint x="366" y="2685" />
            </Array>
          </mxGeometry>
        </mxCell>
        <mxCell id="znAOulT6fDIEL4zfJh_K-28" value="" style="html=1;rounded=1;edgeStyle=orthogonalEdgeStyle;dashed=0;startArrow=block;startSize=12;endArrow=none;strokeColor=#595959;exitX=0.500;exitY=0.001;exitDx=0;exitDy=0;entryX=0.114;entryY=1.000;entryDx=0;entryDy=0;" edge="1" parent="1" source="znAOulT6fDIEL4zfJh_K-14" target="znAOulT6fDIEL4zfJh_K-7">
          <mxGeometry width="50" height="50" relative="1" as="geometry">
            <Array as="points" />
          </mxGeometry>
        </mxCell>
      </root>
    </mxGraphModel>
  </diagram>
</mxfile>
